<?xml version="1.0" encoding="UTF-8"?>
<svg id="Camada_2" xmlns="http://www.w3.org/2000/svg" viewBox="0 0 501.67 474.84">
  <defs>
    <style>
      .cls-1 {
        fill: #b8b8b8;
      }

      .cls-2 {
        fill: #9b9b9b;
      }

      .cls-3 {
        fill: #1c749e;
        stroke: #fff;
      }

      .cls-3, .cls-4 {
        stroke-miterlimit: 10;
        stroke-width: 2px;
      }

      .cls-5 {
        fill: #666;
      }

      .cls-6 {
        fill: #fff;
        font-family: Poppins-Medium, Poppins;
        font-size: 21px;
        font-weight: 500;
      }

      .cls-7 {
        fill: #d4d6d8;
      }

      .cls-4 {
        fill: none;
        stroke: #b8b8b8;
      }
    </style>
  </defs>
  <g id="Camada_1-2">
    <g>
      <g>
        <path class="cls-2" d="M284.97,88.87V1c0-.12,5.07.63,4.07.63l79.5,83.36c.72.8,1.04,4.27.26,4.28l-82.33,1.11c-.84.01-1.53-.68-1.51-1.52Z"/>
        <path class="cls-1" d="M287.05,86.7l-.25-84.98c2.24-.08,5.07,2.55,4.12,2.55l75.59,79.26c.69.76,2.39,3.55,1.65,3.56l-79.68,1.06c-.8.01-1.45-.64-1.43-1.44Z"/>
        <path class="cls-4" d="M364.62,473.84H5.28c-2.37,0-4.28-1.92-4.28-4.28V5.28C1,2.92,2.92,1,5.28,1h281.52c1.18,0,2.31.49,3.12,1.35l37.62,40.01,40.15,41.35c.78.8,1.21,1.87,1.21,2.98v382.87c0,2.37-1.92,4.28-4.28,4.28Z"/>
      </g>
      <g>
        <g>
          <g>
            <path class="cls-5" d="M29.14,35.98v1.95h-3.88v12.64h-2.39v-12.64h-3.91v-1.95h10.19Z"/>
            <path class="cls-5" d="M34.92,35.9l-4.64,2.29v-1.76l4.64-2.56v2.04ZM33.95,39v11.57h-2.39v-11.57h2.39Z"/>
            <path class="cls-5" d="M39.9,40.96v6.41c0,.43.1.75.3.93.2.19.55.28,1.04.28h1.47v2h-1.89c-1.08,0-1.9-.25-2.48-.76s-.86-1.32-.86-2.46v-6.41h-1.37v-1.95h1.37v-2.88h2.42v2.88h2.81v1.95h-2.81Z"/>
            <path class="cls-5" d="M55.39,39v11.57h-2.39v-1.37c-.38.48-.87.85-1.48,1.12-.61.27-1.26.41-1.94.41-.91,0-1.73-.19-2.45-.57-.72-.38-1.29-.94-1.7-1.68s-.62-1.64-.62-2.69v-6.8h2.37v6.45c0,1.04.26,1.83.78,2.38s1.22.83,2.12.83,1.61-.28,2.13-.83c.52-.55.79-1.35.79-2.38v-6.45h2.39Z"/>
            <path class="cls-5" d="M60.94,35.03v15.54h-2.39v-15.54h2.39Z"/>
            <path class="cls-5" d="M66.14,50.02c-.88-.5-1.58-1.2-2.08-2.1-.5-.9-.76-1.95-.76-3.14s.26-2.22.78-3.13c.52-.91,1.22-1.61,2.12-2.1.9-.49,1.9-.73,3-.73s2.11.25,3,.73c.9.49,1.6,1.19,2.12,2.1.52.91.78,1.95.78,3.13s-.27,2.22-.8,3.13-1.26,1.61-2.17,2.11-1.93.75-3.03.75-2.08-.25-2.96-.75ZM70.84,48.24c.54-.29.98-.74,1.31-1.32s.5-1.3.5-2.14-.16-1.55-.48-2.13c-.32-.58-.75-1.02-1.28-1.31s-1.11-.44-1.72-.44-1.19.15-1.71.44-.94.73-1.25,1.31c-.31.58-.46,1.29-.46,2.13,0,1.25.32,2.21.96,2.89.64.68,1.44,1.02,2.4,1.02.62,0,1.19-.15,1.73-.44Z"/>
          </g>
          <rect class="cls-7" x="116.19" y="36.93" width="144.38" height="13.83"/>
        </g>
        <g>
          <g>
            <path class="cls-5" d="M27.29,82.49l-3.36-5.84h-1.83v5.84h-2.39v-14.59h5.04c1.12,0,2.07.2,2.84.59.78.39,1.36.92,1.74,1.58s.58,1.39.58,2.21c0,.95-.28,1.82-.83,2.59-.55.78-1.4,1.31-2.55,1.59l3.61,6.05h-2.86ZM22.11,74.74h2.65c.9,0,1.57-.22,2.03-.67.45-.45.68-1.05.68-1.81s-.22-1.35-.67-1.78c-.45-.43-1.13-.64-2.04-.64h-2.65v4.89Z"/>
            <path class="cls-5" d="M43.51,77.6h-8.84c.07.92.41,1.67,1.03,2.23.62.56,1.37.84,2.27.84,1.29,0,2.2-.54,2.73-1.62h2.58c-.35,1.06-.98,1.94-1.9,2.62-.92.68-2.05,1.02-3.41,1.02-1.11,0-2.1-.25-2.97-.75-.88-.5-1.56-1.2-2.06-2.1-.5-.9-.75-1.95-.75-3.14s.24-2.24.72-3.14c.48-.9,1.16-1.6,2.04-2.09.87-.49,1.88-.73,3.01-.73s2.07.24,2.92.71c.85.48,1.52,1.14,1.99,2.01.48.86.71,1.85.71,2.97,0,.43-.03.83-.08,1.18ZM41.09,75.66c-.01-.88-.33-1.59-.95-2.12-.62-.53-1.38-.8-2.29-.8-.83,0-1.53.26-2.12.79-.59.52-.94,1.24-1.05,2.13h6.41Z"/>
            <path class="cls-5" d="M47.7,82.18c-.72-.33-1.29-.78-1.71-1.34-.42-.57-.64-1.2-.67-1.9h2.48c.04.49.28.9.7,1.23s.96.49,1.61.49,1.19-.13,1.56-.39c.37-.26.56-.59.56-1,0-.43-.21-.76-.62-.97s-1.07-.44-1.96-.69c-.87-.24-1.58-.47-2.12-.69-.55-.22-1.02-.57-1.42-1.03-.4-.46-.6-1.07-.6-1.83,0-.62.18-1.18.55-1.69s.89-.91,1.56-1.21,1.46-.44,2.34-.44c1.32,0,2.38.33,3.18,1,.8.67,1.24,1.57,1.29,2.72h-2.39c-.04-.52-.25-.93-.63-1.24-.38-.31-.89-.46-1.53-.46s-1.11.12-1.45.36-.5.55-.5.94c0,.31.11.57.34.78s.5.38.82.49c.32.12.8.27,1.43.45.84.22,1.53.45,2.07.68.54.23,1,.57,1.4,1.02s.59,1.04.61,1.78c0,.66-.18,1.25-.55,1.76-.36.52-.88.92-1.54,1.22s-1.45.44-2.34.44-1.73-.17-2.45-.49Z"/>
            <path class="cls-5" d="M67.64,70.92v11.57h-2.39v-1.37c-.38.48-.87.85-1.48,1.12-.61.27-1.26.41-1.94.41-.91,0-1.73-.19-2.45-.57s-1.29-.94-1.7-1.68-.62-1.64-.62-2.69v-6.8h2.37v6.45c0,1.04.26,1.83.78,2.38.52.55,1.22.83,2.12.83s1.61-.28,2.13-.83c.53-.55.79-1.35.79-2.38v-6.45h2.39Z"/>
            <path class="cls-5" d="M87.24,71.29c.72.38,1.29.94,1.7,1.68.41.74.62,1.64.62,2.69v6.83h-2.37v-6.47c0-1.04-.26-1.83-.78-2.38-.52-.55-1.23-.83-2.12-.83s-1.61.28-2.13.83c-.53.55-.79,1.35-.79,2.38v6.47h-2.37v-6.47c0-1.04-.26-1.83-.78-2.38-.52-.55-1.23-.83-2.12-.83s-1.61.28-2.13.83c-.52.55-.79,1.35-.79,2.38v6.47h-2.39v-11.57h2.39v1.32c.39-.48.89-.85,1.49-1.11.6-.27,1.25-.4,1.93-.4.92,0,1.75.2,2.48.59.73.39,1.29.96,1.68,1.7.35-.7.9-1.26,1.64-1.67s1.54-.62,2.39-.62c.91,0,1.72.19,2.45.57Z"/>
            <path class="cls-5" d="M94.66,81.93c-.88-.5-1.58-1.2-2.08-2.1-.5-.9-.76-1.95-.76-3.14s.26-2.22.78-3.13c.52-.91,1.22-1.61,2.12-2.1.9-.49,1.9-.73,3-.73s2.11.25,3,.73c.9.49,1.6,1.19,2.12,2.1.52.91.78,1.95.78,3.13s-.27,2.22-.8,3.13-1.26,1.61-2.17,2.11-1.93.75-3.03.75-2.08-.25-2.96-.75ZM99.36,80.16c.54-.29.98-.74,1.31-1.32s.5-1.3.5-2.14-.16-1.55-.48-2.13c-.32-.58-.75-1.02-1.28-1.31s-1.11-.44-1.72-.44-1.19.15-1.71.44-.94.73-1.25,1.31c-.31.58-.46,1.29-.46,2.13,0,1.25.32,2.21.96,2.89.64.68,1.44,1.02,2.4,1.02.62,0,1.19-.15,1.73-.44Z"/>
          </g>
          <rect class="cls-7" x="116.19" y="68.84" width="144.38" height="13.83"/>
        </g>
        <g>
          <g>
            <path class="cls-5" d="M29.4,106.15c-.35.66-.91,1.19-1.68,1.61-.77.41-1.76.62-2.96.62h-2.65v5.92h-2.39v-14.59h5.04c1.12,0,2.07.19,2.84.58.78.39,1.36.91,1.74,1.56s.58,1.39.58,2.21c0,.74-.17,1.44-.52,2.1ZM26.79,105.8c.45-.41.67-1,.67-1.75,0-1.6-.9-2.39-2.71-2.39h-2.65v4.77h2.65c.91,0,1.59-.21,2.04-.62Z"/>
            <path class="cls-5" d="M32.14,105.37c.48-.9,1.14-1.59,1.97-2.09s1.75-.75,2.76-.75c.91,0,1.7.18,2.38.54.68.36,1.22.8,1.63,1.33v-1.68h2.42v11.57h-2.42v-1.72c-.41.55-.96,1-1.66,1.36-.7.36-1.5.55-2.39.55-.99,0-1.9-.26-2.73-.77-.83-.51-1.48-1.23-1.96-2.14-.48-.92-.72-1.96-.72-3.12s.24-2.19.72-3.09ZM40.39,106.42c-.33-.59-.76-1.04-1.29-1.34s-1.11-.46-1.72-.46-1.19.15-1.72.45c-.53.3-.96.74-1.29,1.32s-.49,1.27-.49,2.07.16,1.5.49,2.1c.33.6.76,1.06,1.3,1.38.54.31,1.11.47,1.71.47s1.19-.15,1.72-.46c.53-.31.96-.76,1.29-1.35.33-.6.49-1.29.49-2.09s-.16-1.49-.49-2.08Z"/>
            <path class="cls-5" d="M48.84,98.76v15.54h-2.39v-15.54h2.39Z"/>
            <path class="cls-5" d="M51.92,105.37c.48-.9,1.14-1.59,1.97-2.09.83-.5,1.75-.75,2.76-.75.91,0,1.71.18,2.38.54.68.36,1.22.8,1.63,1.33v-1.68h2.42v11.57h-2.42v-1.72c-.41.55-.96,1-1.66,1.36-.7.36-1.5.55-2.39.55-.99,0-1.9-.26-2.73-.77-.83-.51-1.48-1.23-1.96-2.14-.48-.92-.72-1.96-.72-3.12s.24-2.19.72-3.09ZM60.17,106.42c-.33-.59-.76-1.04-1.29-1.34s-1.11-.46-1.72-.46-1.19.15-1.72.45-.96.74-1.29,1.32c-.33.58-.49,1.27-.49,2.07s.17,1.5.49,2.1c.33.6.76,1.06,1.3,1.38.54.31,1.11.47,1.71.47s1.19-.15,1.72-.46c.53-.31.96-.76,1.29-1.35.33-.6.49-1.29.49-2.09s-.17-1.49-.49-2.08Z"/>
            <path class="cls-5" d="M70.7,112.16l3.28-9.43h2.54l-4.41,11.57h-2.86l-4.39-11.57h2.56l3.28,9.43Z"/>
            <path class="cls-5" d="M82.12,103.03c.58-.33,1.27-.49,2.07-.49v2.48h-.61c-.94,0-1.65.24-2.13.71-.48.48-.72,1.3-.72,2.48v6.09h-2.39v-11.57h2.39v1.68c.35-.59.81-1.05,1.4-1.38Z"/>
            <path class="cls-5" d="M86.31,105.37c.48-.9,1.14-1.59,1.97-2.09.83-.5,1.75-.75,2.76-.75.91,0,1.71.18,2.38.54.68.36,1.22.8,1.63,1.33v-1.68h2.42v11.57h-2.42v-1.72c-.41.55-.96,1-1.66,1.36-.7.36-1.5.55-2.39.55-.99,0-1.9-.26-2.73-.77-.83-.51-1.48-1.23-1.96-2.14-.48-.92-.72-1.96-.72-3.12s.24-2.19.72-3.09ZM94.57,106.42c-.33-.59-.76-1.04-1.29-1.34s-1.11-.46-1.72-.46-1.19.15-1.72.45-.96.74-1.29,1.32c-.33.58-.49,1.27-.49,2.07s.17,1.5.49,2.1c.33.6.76,1.06,1.3,1.38.54.31,1.11.47,1.71.47s1.19-.15,1.72-.46c.53-.31.96-.76,1.29-1.35.33-.6.49-1.29.49-2.09s-.17-1.49-.49-2.08Z"/>
            <path class="cls-5" d="M102.38,113.99c-.72-.33-1.29-.78-1.71-1.34s-.64-1.2-.67-1.9h2.48c.04.49.28.9.7,1.23.43.33.96.49,1.61.49s1.19-.13,1.56-.39c.37-.26.56-.59.56-1,0-.43-.21-.76-.62-.97s-1.07-.44-1.96-.69c-.87-.24-1.58-.47-2.12-.69-.55-.22-1.02-.57-1.42-1.03-.4-.46-.6-1.07-.6-1.83,0-.62.18-1.18.55-1.69.36-.51.88-.91,1.56-1.21.68-.29,1.46-.44,2.34-.44,1.32,0,2.38.33,3.18,1s1.24,1.57,1.29,2.72h-2.39c-.04-.52-.25-.93-.63-1.24-.38-.31-.89-.46-1.53-.46s-1.11.12-1.45.36c-.34.24-.5.55-.5.94,0,.31.11.57.34.78.22.21.5.38.82.49.32.12.8.27,1.43.45.84.22,1.53.45,2.07.68.54.23,1,.57,1.4,1.02.39.45.59,1.04.61,1.78,0,.66-.18,1.25-.55,1.76s-.88.92-1.54,1.22c-.67.29-1.45.44-2.34.44s-1.73-.17-2.45-.49Z"/>
            <path class="cls-5" d="M120.72,105.69v2.02h-8.63v-2.02h8.63Z"/>
            <path class="cls-5" d="M124.05,105.36c.48-.9,1.15-1.6,2.01-2.09.85-.49,1.83-.73,2.94-.73,1.4,0,2.56.33,3.48,1s1.54,1.61,1.86,2.85h-2.58c-.21-.57-.55-1.02-1.01-1.34s-1.04-.48-1.74-.48c-.98,0-1.76.35-2.34,1.04-.58.69-.87,1.66-.87,2.91s.29,2.22.87,2.92,1.36,1.05,2.34,1.05c1.39,0,2.3-.61,2.75-1.83h2.58c-.34,1.18-.97,2.11-1.89,2.8s-2.07,1.04-3.44,1.04c-1.11,0-2.09-.25-2.94-.75-.85-.5-1.52-1.2-2.01-2.1-.48-.9-.72-1.95-.72-3.14s.24-2.24.72-3.14Z"/>
            <path class="cls-5" d="M145.07,103.1c.69.38,1.24.94,1.64,1.68.4.74.6,1.64.6,2.69v6.83h-2.37v-6.47c0-1.04-.26-1.83-.78-2.38-.52-.55-1.22-.83-2.12-.83s-1.61.28-2.13.83c-.53.55-.79,1.35-.79,2.38v6.47h-2.39v-15.54h2.39v5.31c.41-.49.92-.87,1.54-1.13.62-.27,1.31-.4,2.05-.4.88,0,1.67.19,2.36.57Z"/>
            <path class="cls-5" d="M150.28,105.37c.48-.9,1.14-1.59,1.97-2.09s1.75-.75,2.76-.75c.91,0,1.7.18,2.38.54.68.36,1.22.8,1.63,1.33v-1.68h2.42v11.57h-2.42v-1.72c-.41.55-.96,1-1.66,1.36-.7.36-1.5.55-2.39.55-.99,0-1.9-.26-2.73-.77-.83-.51-1.48-1.23-1.96-2.14-.48-.92-.72-1.96-.72-3.12s.24-2.19.72-3.09ZM158.53,106.42c-.33-.59-.76-1.04-1.29-1.34s-1.11-.46-1.72-.46-1.19.15-1.72.45-.96.74-1.29,1.32-.49,1.27-.49,2.07.16,1.5.49,2.1c.33.6.76,1.06,1.3,1.38.54.31,1.11.47,1.71.47s1.19-.15,1.72-.46c.53-.31.96-.76,1.29-1.35.33-.6.49-1.29.49-2.09s-.17-1.49-.49-2.08Z"/>
            <path class="cls-5" d="M169.06,112.16l3.28-9.43h2.54l-4.41,11.57h-2.86l-4.39-11.57h2.56l3.28,9.43Z"/>
            <path class="cls-5" d="M187.21,109.41h-8.84c.07.92.41,1.67,1.03,2.23.62.56,1.37.84,2.27.84,1.29,0,2.2-.54,2.73-1.62h2.58c-.35,1.06-.98,1.94-1.9,2.62-.92.68-2.05,1.02-3.41,1.02-1.11,0-2.1-.25-2.97-.75s-1.56-1.2-2.06-2.1c-.5-.9-.75-1.95-.75-3.14s.24-2.24.72-3.14c.48-.9,1.16-1.6,2.04-2.09.88-.49,1.88-.73,3.01-.73s2.07.24,2.92.71c.85.48,1.52,1.14,2,2.01.48.86.71,1.85.71,2.97,0,.43-.03.83-.08,1.18ZM184.79,107.47c-.01-.88-.33-1.59-.94-2.12-.62-.53-1.38-.8-2.29-.8-.83,0-1.53.26-2.12.79-.59.52-.94,1.24-1.05,2.13h6.4Z"/>
          </g>
          <rect class="cls-7" x="197.73" y="100.66" width="62.84" height="13.83"/>
        </g>
      </g>
      <g>
        <g>
          <g>
            <path class="cls-5" d="M22.11,167.24v14.59h-2.39v-14.59h2.39Z"/>
            <path class="cls-5" d="M33.54,170.64c.72.38,1.28.94,1.69,1.68s.61,1.64.61,2.69v6.83h-2.37v-6.47c0-1.04-.26-1.83-.78-2.38-.52-.55-1.23-.83-2.12-.83s-1.61.28-2.13.83c-.52.55-.79,1.35-.79,2.38v6.47h-2.39v-11.57h2.39v1.32c.39-.48.89-.85,1.5-1.11.61-.27,1.26-.4,1.94-.4.91,0,1.72.19,2.45.57Z"/>
            <path class="cls-5" d="M41.68,172.22v6.41c0,.43.1.75.3.93.2.19.55.28,1.04.28h1.47v2h-1.89c-1.08,0-1.9-.25-2.48-.76-.57-.5-.86-1.32-.86-2.46v-6.41h-1.37v-1.95h1.37v-2.88h2.42v2.88h2.81v1.95h-2.81Z"/>
            <path class="cls-5" d="M50.49,170.57c.58-.33,1.27-.49,2.07-.49v2.48h-.61c-.94,0-1.65.24-2.13.71-.48.48-.72,1.3-.72,2.48v6.09h-2.39v-11.57h2.39v1.68c.35-.59.82-1.05,1.4-1.38Z"/>
            <path class="cls-5" d="M56.82,181.28c-.88-.5-1.57-1.2-2.08-2.1-.5-.9-.76-1.95-.76-3.14s.26-2.22.78-3.13,1.22-1.61,2.12-2.1c.9-.49,1.9-.73,3-.73s2.11.25,3,.73c.9.49,1.6,1.19,2.12,2.1.52.91.78,1.95.78,3.13s-.27,2.22-.8,3.13c-.53.91-1.26,1.61-2.17,2.11s-1.93.75-3.03.75-2.08-.25-2.96-.75ZM61.51,179.5c.54-.29.98-.74,1.31-1.32s.5-1.3.5-2.14-.16-1.55-.48-2.13c-.32-.58-.75-1.02-1.28-1.31s-1.11-.44-1.72-.44-1.19.15-1.71.44c-.52.29-.94.73-1.25,1.31-.31.58-.46,1.29-.46,2.13,0,1.25.32,2.21.96,2.89s1.44,1.02,2.41,1.02c.62,0,1.19-.15,1.73-.44Z"/>
            <path class="cls-5" d="M68.09,172.91c.48-.9,1.14-1.59,1.97-2.09s1.76-.75,2.78-.75c.76,0,1.5.16,2.24.49.73.33,1.32.77,1.75,1.31v-5.59h2.42v15.54h-2.42v-1.74c-.39.56-.93,1.02-1.63,1.39-.69.36-1.49.55-2.38.55-1.01,0-1.93-.26-2.76-.77-.83-.51-1.49-1.23-1.97-2.14-.48-.92-.72-1.96-.72-3.12s.24-2.19.72-3.09ZM76.34,173.96c-.33-.59-.76-1.04-1.29-1.34s-1.11-.46-1.72-.46-1.19.15-1.72.45c-.53.3-.96.74-1.29,1.32s-.49,1.27-.49,2.07.16,1.5.49,2.1c.33.6.76,1.06,1.3,1.38.54.31,1.11.47,1.71.47s1.19-.15,1.72-.46c.53-.31.96-.76,1.29-1.35.33-.6.49-1.29.49-2.09s-.16-1.49-.49-2.08Z"/>
            <path class="cls-5" d="M92.88,170.26v11.57h-2.39v-1.37c-.38.48-.87.85-1.48,1.12-.61.27-1.26.41-1.94.41-.91,0-1.73-.19-2.45-.57s-1.29-.94-1.7-1.68-.62-1.64-.62-2.69v-6.8h2.37v6.45c0,1.04.26,1.83.78,2.38.52.55,1.22.83,2.12.83s1.61-.28,2.13-.83c.53-.55.79-1.35.79-2.38v-6.45h2.39Z"/>
            <path class="cls-5" d="M103.65,178.18h2.58c-.31,1.06-.86,1.94-1.65,2.62-.79.68-1.78,1.07-2.97,1.19v.86c.81,0,1.47.19,1.97.58.5.38.76.93.76,1.63s-.25,1.26-.76,1.67c-.5.41-1.14.62-1.91.62h-2.77v-1.51h2.29c.39,0,.69-.06.88-.17.2-.11.29-.32.29-.61s-.1-.5-.29-.61c-.2-.11-.49-.17-.88-.17h-1.16v-2.31c-.95-.11-1.79-.43-2.52-.96-.73-.53-1.29-1.21-1.69-2.06-.4-.85-.6-1.82-.6-2.91,0-1.19.24-2.24.72-3.14.48-.9,1.15-1.6,2.01-2.09.85-.49,1.83-.73,2.94-.73,1.4,0,2.56.33,3.48,1s1.54,1.61,1.86,2.85h-2.58c-.21-.57-.55-1.02-1.01-1.34s-1.04-.48-1.74-.48c-.98,0-1.76.35-2.34,1.04-.58.69-.87,1.66-.87,2.91s.29,2.22.87,2.92,1.36,1.05,2.34,1.05c1.39,0,2.3-.61,2.75-1.83Z"/>
            <path class="cls-5" d="M108.55,172.91c.48-.9,1.14-1.59,1.97-2.09.83-.5,1.75-.75,2.76-.75.91,0,1.71.18,2.38.54.68.36,1.22.8,1.63,1.33v-1.68h2.42v11.57h-2.42v-1.72c-.41.55-.96,1-1.66,1.36-.7.36-1.5.55-2.39.55-.99,0-1.9-.26-2.73-.77-.83-.51-1.48-1.23-1.96-2.14-.48-.92-.72-1.96-.72-3.12s.24-2.19.72-3.09ZM116.81,173.96c-.33-.59-.76-1.04-1.29-1.34s-1.11-.46-1.72-.46-1.19.15-1.72.45-.96.74-1.29,1.32c-.33.58-.49,1.27-.49,2.07s.17,1.5.49,2.1c.33.6.76,1.06,1.3,1.38.54.31,1.11.47,1.71.47s1.19-.15,1.72-.46c.53-.31.96-.76,1.29-1.35.33-.6.49-1.29.49-2.09s-.17-1.49-.49-2.08ZM111.55,167.23c.42-.41.94-.62,1.57-.62.27,0,.5.04.69.13s.43.21.71.38c.21.14.39.25.54.31.15.07.31.11.49.11.24,0,.44-.07.6-.22.16-.15.26-.37.3-.66h1.34c-.11.81-.38,1.42-.8,1.84-.42.41-.95.62-1.58.62-.27,0-.5-.05-.71-.14s-.44-.22-.69-.39c-.25-.15-.44-.26-.58-.33-.13-.06-.28-.09-.45-.09-.24,0-.44.08-.6.23-.16.15-.26.38-.3.67h-1.34c.11-.81.38-1.42.8-1.84Z"/>
            <path class="cls-5" d="M124.92,181.28c-.88-.5-1.57-1.2-2.08-2.1-.5-.9-.76-1.95-.76-3.14s.26-2.22.78-3.13,1.22-1.61,2.12-2.1c.9-.49,1.9-.73,3-.73s2.11.25,3,.73c.9.49,1.6,1.19,2.12,2.1.52.91.78,1.95.78,3.13s-.27,2.22-.8,3.13c-.53.91-1.26,1.61-2.17,2.11s-1.93.75-3.03.75-2.08-.25-2.96-.75ZM129.62,179.5c.54-.29.98-.74,1.31-1.32s.5-1.3.5-2.14-.16-1.55-.48-2.13c-.32-.58-.75-1.02-1.28-1.31s-1.11-.44-1.72-.44-1.19.15-1.71.44c-.52.29-.94.73-1.25,1.31-.31.58-.46,1.29-.46,2.13,0,1.25.32,2.21.96,2.89s1.44,1.02,2.41,1.02c.62,0,1.19-.15,1.73-.44Z"/>
          </g>
          <rect class="cls-7" x="146.25" y="168.19" width="205.64" height="13.83"/>
        </g>
        <g>
          <g>
            <path class="cls-5" d="M29.14,199.09v1.95h-3.88v12.64h-2.39v-12.64h-3.91v-1.95h10.19Z"/>
            <path class="cls-5" d="M35.35,202.42c.58-.33,1.27-.49,2.07-.49v2.48h-.61c-.94,0-1.65.24-2.13.71-.48.48-.72,1.3-.72,2.48v6.09h-2.39v-11.57h2.39v1.68c.35-.59.82-1.05,1.4-1.38Z"/>
            <path class="cls-5" d="M39.55,204.76c.48-.9,1.14-1.59,1.97-2.09s1.75-.75,2.76-.75c.91,0,1.7.18,2.38.54.68.36,1.22.8,1.63,1.33v-1.68h2.42v11.57h-2.42v-1.72c-.41.55-.96,1-1.66,1.36-.7.36-1.5.55-2.39.55-.99,0-1.9-.26-2.73-.77-.83-.51-1.48-1.23-1.96-2.14-.48-.92-.72-1.96-.72-3.12s.24-2.19.72-3.09ZM47.8,205.81c-.33-.59-.76-1.04-1.29-1.34s-1.11-.46-1.72-.46-1.19.15-1.72.45c-.53.3-.96.74-1.29,1.32s-.49,1.27-.49,2.07.16,1.5.49,2.1c.33.6.76,1.06,1.3,1.38.54.31,1.11.47,1.71.47s1.19-.15,1.72-.46c.53-.31.96-.76,1.29-1.35.33-.6.49-1.29.49-2.09s-.16-1.49-.49-2.08Z"/>
            <path class="cls-5" d="M57.92,202.46c.71-.36,1.49-.54,2.36-.54,1.02,0,1.95.25,2.77.73.83.49,1.48,1.19,1.95,2.09s.71,1.94.71,3.1-.24,2.2-.71,3.12-1.13,1.63-1.96,2.14c-.83.51-1.75.77-2.76.77-.9,0-1.69-.18-2.38-.53s-1.24-.8-1.65-1.34v1.68h-2.39v-15.54h2.39v5.69c.41-.56.96-1.02,1.67-1.38ZM62.8,205.78c-.33-.58-.76-1.02-1.3-1.32s-1.12-.45-1.73-.45-1.17.15-1.71.46c-.54.31-.97.76-1.3,1.34s-.49,1.28-.49,2.08.16,1.49.49,2.09c.33.59.76,1.05,1.3,1.35.54.31,1.11.46,1.71.46s1.19-.16,1.73-.47c.54-.32.97-.77,1.3-1.38.33-.6.49-1.3.49-2.1s-.17-1.49-.49-2.07Z"/>
            <path class="cls-5" d="M68.02,204.76c.48-.9,1.14-1.59,1.97-2.09s1.75-.75,2.76-.75c.91,0,1.7.18,2.38.54.68.36,1.22.8,1.63,1.33v-1.68h2.42v11.57h-2.42v-1.72c-.41.55-.96,1-1.66,1.36-.7.36-1.5.55-2.39.55-.99,0-1.9-.26-2.73-.77-.83-.51-1.48-1.23-1.96-2.14-.48-.92-.72-1.96-.72-3.12s.24-2.19.72-3.09ZM76.28,205.81c-.33-.59-.76-1.04-1.29-1.34s-1.11-.46-1.72-.46-1.19.15-1.72.45c-.53.3-.96.74-1.29,1.32s-.49,1.27-.49,2.07.16,1.5.49,2.1c.33.6.76,1.06,1.3,1.38.54.31,1.11.47,1.71.47s1.19-.15,1.72-.46c.53-.31.96-.76,1.29-1.35.33-.6.49-1.29.49-2.09s-.16-1.49-.49-2.08Z"/>
            <path class="cls-5" d="M84.73,198.14v15.54h-2.39v-15.54h2.39Z"/>
            <path class="cls-5" d="M96.23,202.49c.69.38,1.24.94,1.64,1.68.4.74.6,1.64.6,2.69v6.83h-2.37v-6.47c0-1.04-.26-1.83-.78-2.38-.52-.55-1.23-.83-2.12-.83s-1.61.28-2.13.83c-.52.55-.79,1.35-.79,2.38v6.47h-2.39v-15.54h2.39v5.31c.41-.49.92-.87,1.54-1.13.62-.27,1.3-.4,2.05-.4.88,0,1.67.19,2.36.57Z"/>
            <path class="cls-5" d="M103.57,213.13c-.88-.5-1.58-1.2-2.08-2.1-.5-.9-.76-1.95-.76-3.14s.26-2.22.78-3.13c.52-.91,1.22-1.61,2.12-2.1.9-.49,1.9-.73,3-.73s2.11.25,3,.73c.9.49,1.6,1.19,2.12,2.1.52.91.78,1.95.78,3.13s-.27,2.22-.8,3.13-1.26,1.61-2.17,2.11-1.93.75-3.03.75-2.08-.25-2.96-.75ZM108.26,211.35c.54-.29.98-.74,1.31-1.32s.5-1.3.5-2.14-.16-1.55-.48-2.13c-.32-.58-.75-1.02-1.28-1.31s-1.11-.44-1.72-.44-1.19.15-1.71.44-.94.73-1.25,1.31c-.31.58-.46,1.29-.46,2.13,0,1.25.32,2.21.96,2.89.64.68,1.44,1.02,2.4,1.02.62,0,1.19-.15,1.73-.44Z"/>
            <path class="cls-5" d="M116.66,213.38c-.72-.33-1.29-.78-1.71-1.34-.42-.57-.64-1.2-.67-1.9h2.48c.04.49.28.9.7,1.23s.96.49,1.61.49,1.19-.13,1.56-.39c.37-.26.56-.59.56-1,0-.43-.21-.76-.62-.97s-1.07-.44-1.96-.69c-.87-.24-1.58-.47-2.12-.69-.55-.22-1.02-.57-1.42-1.03-.4-.46-.6-1.07-.6-1.83,0-.62.18-1.18.55-1.69s.89-.91,1.56-1.21,1.46-.44,2.34-.44c1.32,0,2.38.33,3.18,1,.8.67,1.24,1.57,1.29,2.72h-2.39c-.04-.52-.25-.93-.63-1.24-.38-.31-.89-.46-1.53-.46s-1.11.12-1.45.36-.5.55-.5.94c0,.31.11.57.34.78s.5.38.82.49c.32.12.8.27,1.43.45.84.22,1.53.45,2.07.68.54.23,1,.57,1.4,1.02s.59,1.04.61,1.78c0,.66-.18,1.25-.55,1.76-.36.52-.88.92-1.54,1.22s-1.45.44-2.34.44-1.73-.17-2.45-.49Z"/>
            <path class="cls-5" d="M135.37,202.42c.58-.33,1.27-.49,2.07-.49v2.48h-.61c-.94,0-1.65.24-2.13.71-.48.48-.72,1.3-.72,2.48v6.09h-2.39v-11.57h2.39v1.68c.35-.59.82-1.05,1.4-1.38Z"/>
            <path class="cls-5" d="M150.17,208.79h-8.84c.07.92.41,1.67,1.03,2.23.62.56,1.37.84,2.27.84,1.29,0,2.2-.54,2.73-1.62h2.58c-.35,1.06-.98,1.94-1.9,2.62-.92.68-2.06,1.02-3.41,1.02-1.11,0-2.1-.25-2.97-.75-.88-.5-1.56-1.2-2.06-2.1-.5-.9-.75-1.95-.75-3.14s.24-2.24.72-3.14c.48-.9,1.16-1.6,2.04-2.09.87-.49,1.88-.73,3.01-.73s2.07.24,2.92.71,1.52,1.14,1.99,2.01c.48.86.71,1.85.71,2.97,0,.43-.03.83-.08,1.18ZM147.75,206.86c-.01-.88-.33-1.59-.94-2.12-.62-.53-1.38-.8-2.29-.8-.83,0-1.53.26-2.12.79-.59.52-.94,1.24-1.05,2.13h6.4Z"/>
            <path class="cls-5" d="M154.99,198.14v15.54h-2.39v-15.54h2.39Z"/>
            <path class="cls-5" d="M158.07,204.76c.48-.9,1.14-1.59,1.97-2.09s1.75-.75,2.76-.75c.91,0,1.7.18,2.38.54.68.36,1.22.8,1.63,1.33v-1.68h2.42v11.57h-2.42v-1.72c-.41.55-.96,1-1.66,1.36-.7.36-1.5.55-2.39.55-.99,0-1.9-.26-2.73-.77-.83-.51-1.48-1.23-1.96-2.14-.48-.92-.72-1.96-.72-3.12s.24-2.19.72-3.09ZM166.32,205.81c-.33-.59-.76-1.04-1.29-1.34s-1.11-.46-1.72-.46-1.19.15-1.72.45-.96.74-1.29,1.32-.49,1.27-.49,2.07.16,1.5.49,2.1c.33.6.76,1.06,1.3,1.38.54.31,1.11.47,1.71.47s1.19-.15,1.72-.46c.53-.31.96-.76,1.29-1.35.33-.6.49-1.29.49-2.09s-.17-1.49-.49-2.08Z"/>
            <path class="cls-5" d="M172.31,204.75c.48-.9,1.15-1.6,2-2.09.85-.49,1.83-.73,2.94-.73,1.4,0,2.56.33,3.48,1,.92.67,1.54,1.61,1.86,2.85h-2.58c-.21-.57-.55-1.02-1.01-1.34-.46-.32-1.04-.48-1.74-.48-.98,0-1.76.35-2.34,1.04-.58.69-.87,1.66-.87,2.91s.29,2.22.87,2.92,1.36,1.05,2.34,1.05c1.39,0,2.3-.61,2.75-1.83h2.58c-.34,1.18-.97,2.11-1.89,2.8-.92.69-2.07,1.04-3.44,1.04-1.11,0-2.09-.25-2.94-.75s-1.52-1.2-2-2.1c-.48-.9-.72-1.95-.72-3.14s.24-2.24.72-3.14Z"/>
            <path class="cls-5" d="M185.11,200.14c-.29-.29-.44-.66-.44-1.09s.15-.8.44-1.09c.29-.29.66-.44,1.09-.44s.78.15,1.07.44c.29.29.44.66.44,1.09s-.15.8-.44,1.09-.65.44-1.07.44-.8-.15-1.09-.44ZM187.38,202.11v11.57h-2.39v-11.57h2.39Z"/>
            <path class="cls-5" d="M192.58,213.13c-.88-.5-1.58-1.2-2.08-2.1-.5-.9-.76-1.95-.76-3.14s.26-2.22.78-3.13c.52-.91,1.22-1.61,2.12-2.1.9-.49,1.9-.73,3-.73s2.11.25,3,.73c.9.49,1.6,1.19,2.12,2.1.52.91.78,1.95.78,3.13s-.27,2.22-.8,3.13-1.26,1.61-2.17,2.11c-.92.5-1.93.75-3.04.75s-2.08-.25-2.96-.75ZM197.28,211.35c.54-.29.98-.74,1.31-1.32s.5-1.3.5-2.14-.16-1.55-.48-2.13c-.32-.58-.75-1.02-1.28-1.31s-1.11-.44-1.72-.44-1.19.15-1.71.44c-.52.29-.94.73-1.25,1.31-.31.58-.46,1.29-.46,2.13,0,1.25.32,2.21.96,2.89s1.44,1.02,2.4,1.02c.62,0,1.19-.15,1.73-.44Z"/>
            <path class="cls-5" d="M212.21,202.49c.72.38,1.28.94,1.69,1.68s.61,1.64.61,2.69v6.83h-2.37v-6.47c0-1.04-.26-1.83-.78-2.38-.52-.55-1.22-.83-2.12-.83s-1.61.28-2.13.83c-.53.55-.79,1.35-.79,2.38v6.47h-2.39v-11.57h2.39v1.32c.39-.48.89-.85,1.5-1.11.61-.27,1.26-.4,1.94-.4.91,0,1.73.19,2.45.57Z"/>
            <path class="cls-5" d="M217.48,204.76c.48-.9,1.14-1.59,1.97-2.09s1.75-.75,2.76-.75c.91,0,1.7.18,2.38.54.68.36,1.22.8,1.63,1.33v-1.68h2.42v11.57h-2.42v-1.72c-.41.55-.96,1-1.66,1.36-.7.36-1.5.55-2.39.55-.99,0-1.9-.26-2.73-.77-.83-.51-1.48-1.23-1.96-2.14-.48-.92-.72-1.96-.72-3.12s.24-2.19.72-3.09ZM225.73,205.81c-.33-.59-.76-1.04-1.29-1.34s-1.11-.46-1.72-.46-1.19.15-1.72.45-.96.74-1.29,1.32-.49,1.27-.49,2.07.16,1.5.49,2.1c.33.6.76,1.06,1.3,1.38.54.31,1.11.47,1.71.47s1.19-.15,1.72-.46c.53-.31.96-.76,1.29-1.35.33-.6.49-1.29.49-2.09s-.17-1.49-.49-2.08Z"/>
            <path class="cls-5" d="M231.72,204.76c.48-.9,1.14-1.59,1.97-2.09s1.76-.75,2.78-.75c.76,0,1.5.16,2.24.49.74.33,1.32.77,1.75,1.31v-5.59h2.42v15.54h-2.42v-1.74c-.39.56-.93,1.02-1.63,1.39-.69.36-1.49.55-2.38.55-1.01,0-1.93-.26-2.76-.77-.83-.51-1.49-1.23-1.97-2.14-.48-.92-.72-1.96-.72-3.12s.24-2.19.72-3.09ZM239.97,205.81c-.33-.59-.76-1.04-1.29-1.34s-1.11-.46-1.72-.46-1.19.15-1.72.45-.96.74-1.29,1.32-.49,1.27-.49,2.07.16,1.5.49,2.1c.33.6.76,1.06,1.3,1.38.54.31,1.11.47,1.71.47s1.19-.15,1.72-.46c.53-.31.96-.76,1.29-1.35.33-.6.49-1.29.49-2.09s-.17-1.49-.49-2.08Z"/>
            <path class="cls-5" d="M248.09,213.13c-.88-.5-1.58-1.2-2.08-2.1-.5-.9-.76-1.95-.76-3.14s.26-2.22.78-3.13c.52-.91,1.22-1.61,2.12-2.1.9-.49,1.9-.73,3-.73s2.11.25,3,.73c.9.49,1.6,1.19,2.12,2.1.52.91.78,1.95.78,3.13s-.27,2.22-.8,3.13-1.26,1.61-2.17,2.11c-.92.5-1.93.75-3.04.75s-2.08-.25-2.96-.75ZM252.78,211.35c.54-.29.98-.74,1.31-1.32s.5-1.3.5-2.14-.16-1.55-.48-2.13c-.32-.58-.75-1.02-1.28-1.31s-1.11-.44-1.72-.44-1.19.15-1.71.44c-.52.29-.94.73-1.25,1.31-.31.58-.46,1.29-.46,2.13,0,1.25.32,2.21.96,2.89s1.44,1.02,2.4,1.02c.62,0,1.19-.15,1.73-.44Z"/>
            <path class="cls-5" d="M261.18,213.38c-.72-.33-1.29-.78-1.71-1.34s-.64-1.2-.67-1.9h2.48c.04.49.28.9.7,1.23.43.33.96.49,1.61.49s1.19-.13,1.56-.39c.37-.26.56-.59.56-1,0-.43-.21-.76-.62-.97s-1.07-.44-1.96-.69c-.87-.24-1.58-.47-2.12-.69-.55-.22-1.02-.57-1.42-1.03-.4-.46-.6-1.07-.6-1.83,0-.62.18-1.18.55-1.69s.89-.91,1.56-1.21c.68-.29,1.46-.44,2.34-.44,1.32,0,2.38.33,3.18,1,.8.67,1.24,1.57,1.29,2.72h-2.39c-.04-.52-.25-.93-.63-1.24-.38-.31-.89-.46-1.53-.46s-1.11.12-1.45.36-.5.55-.5.94c0,.31.11.57.34.78s.5.38.82.49c.32.12.8.27,1.43.45.84.22,1.53.45,2.07.68.54.23,1,.57,1.4,1.02.39.45.59,1.04.61,1.78,0,.66-.18,1.25-.55,1.76-.36.52-.88.92-1.54,1.22s-1.45.44-2.34.44-1.73-.17-2.45-.49Z"/>
          </g>
          <rect class="cls-7" x="275.6" y="200.04" width="76.29" height="13.83"/>
        </g>
        <g>
          <g>
            <path class="cls-5" d="M27.67,277.73l-3.36-5.84h-1.83v5.84h-2.39v-14.59h5.04c1.12,0,2.07.2,2.84.59.78.39,1.36.92,1.74,1.58s.58,1.39.58,2.21c0,.95-.28,1.82-.83,2.59-.55.78-1.4,1.31-2.55,1.59l3.61,6.05h-2.86ZM22.48,269.98h2.65c.9,0,1.57-.22,2.03-.67.45-.45.68-1.05.68-1.81s-.22-1.35-.67-1.78c-.45-.43-1.13-.64-2.04-.64h-2.65v4.89Z"/>
            <path class="cls-5" d="M43.88,272.84h-8.84c.07.92.41,1.67,1.03,2.23.62.56,1.37.84,2.27.84,1.29,0,2.2-.54,2.73-1.62h2.58c-.35,1.06-.98,1.94-1.9,2.62-.92.68-2.05,1.02-3.41,1.02-1.11,0-2.1-.25-2.97-.75-.88-.5-1.56-1.2-2.06-2.1-.5-.9-.75-1.95-.75-3.14s.24-2.24.72-3.14c.48-.9,1.16-1.6,2.04-2.09.87-.49,1.88-.73,3.01-.73s2.07.24,2.92.71c.85.48,1.52,1.14,1.99,2.01.48.86.71,1.85.71,2.97,0,.43-.03.83-.08,1.18ZM41.47,270.9c-.01-.88-.33-1.59-.95-2.12-.62-.53-1.38-.8-2.29-.8-.83,0-1.53.26-2.12.79-.59.52-.94,1.24-1.05,2.13h6.41Z"/>
            <path class="cls-5" d="M48.07,277.42c-.72-.33-1.29-.78-1.71-1.34-.42-.57-.64-1.2-.67-1.9h2.48c.04.49.28.9.7,1.23s.96.49,1.61.49,1.19-.13,1.56-.39c.37-.26.56-.59.56-1,0-.43-.21-.76-.62-.97s-1.07-.44-1.96-.69c-.87-.24-1.58-.47-2.12-.69-.55-.22-1.02-.57-1.42-1.03-.4-.46-.6-1.07-.6-1.83,0-.62.18-1.18.55-1.69s.89-.91,1.56-1.21,1.46-.44,2.34-.44c1.32,0,2.38.33,3.18,1,.8.67,1.24,1.57,1.29,2.72h-2.39c-.04-.52-.25-.93-.63-1.24-.38-.31-.89-.46-1.53-.46s-1.11.12-1.45.36-.5.55-.5.94c0,.31.11.57.34.78s.5.38.82.49c.32.12.8.27,1.43.45.84.22,1.53.45,2.07.68.54.23,1,.57,1.4,1.02s.59,1.04.61,1.78c0,.66-.18,1.25-.55,1.76-.36.52-.88.92-1.54,1.22s-1.45.44-2.34.44-1.73-.17-2.45-.49Z"/>
            <path class="cls-5" d="M68.01,266.16v11.57h-2.39v-1.37c-.38.48-.87.85-1.48,1.12-.61.27-1.26.41-1.94.41-.91,0-1.73-.19-2.45-.57s-1.29-.94-1.7-1.68-.62-1.64-.62-2.69v-6.8h2.37v6.45c0,1.04.26,1.83.78,2.38.52.55,1.22.83,2.12.83s1.61-.28,2.13-.83c.53-.55.79-1.35.79-2.38v-6.45h2.39Z"/>
            <path class="cls-5" d="M73.55,262.19v15.54h-2.39v-15.54h2.39Z"/>
            <path class="cls-5" d="M79.5,268.11v6.41c0,.43.1.75.3.93.2.19.55.28,1.04.28h1.47v2h-1.89c-1.08,0-1.9-.25-2.48-.76s-.86-1.32-.86-2.46v-6.41h-1.37v-1.95h1.37v-2.88h2.42v2.88h2.81v1.95h-2.81Z"/>
            <path class="cls-5" d="M84.44,268.8c.48-.9,1.14-1.59,1.97-2.09.83-.5,1.75-.75,2.76-.75.91,0,1.71.18,2.38.54.68.36,1.22.8,1.63,1.33v-1.68h2.42v11.57h-2.42v-1.72c-.41.55-.96,1-1.66,1.36-.7.36-1.5.55-2.39.55-.99,0-1.9-.26-2.73-.77-.83-.51-1.48-1.23-1.96-2.14-.48-.92-.72-1.96-.72-3.12s.24-2.19.72-3.09ZM92.69,269.85c-.33-.59-.76-1.04-1.29-1.34s-1.11-.46-1.72-.46-1.19.15-1.72.45-.96.74-1.29,1.32c-.33.58-.49,1.27-.49,2.07s.17,1.5.49,2.1c.33.6.76,1.06,1.3,1.38.54.31,1.11.47,1.71.47s1.19-.15,1.72-.46c.53-.31.96-.76,1.29-1.35.33-.6.49-1.29.49-2.09s-.17-1.49-.49-2.08Z"/>
            <path class="cls-5" d="M98.68,268.8c.48-.9,1.14-1.59,1.97-2.09s1.76-.75,2.78-.75c.76,0,1.5.16,2.24.49.73.33,1.32.77,1.75,1.31v-5.59h2.42v15.54h-2.42v-1.74c-.39.56-.93,1.02-1.63,1.39-.69.36-1.49.55-2.38.55-1.01,0-1.93-.26-2.76-.77-.83-.51-1.49-1.23-1.97-2.14-.48-.92-.72-1.96-.72-3.12s.24-2.19.72-3.09ZM106.93,269.85c-.33-.59-.76-1.04-1.29-1.34s-1.11-.46-1.72-.46-1.19.15-1.72.45c-.53.3-.96.74-1.29,1.32s-.49,1.27-.49,2.07.16,1.5.49,2.1c.33.6.76,1.06,1.3,1.38.54.31,1.11.47,1.71.47s1.19-.15,1.72-.46c.53-.31.96-.76,1.29-1.35.33-.6.49-1.29.49-2.09s-.16-1.49-.49-2.08Z"/>
            <path class="cls-5" d="M115.05,277.17c-.88-.5-1.57-1.2-2.08-2.1-.5-.9-.76-1.95-.76-3.14s.26-2.22.78-3.13,1.22-1.61,2.12-2.1c.9-.49,1.9-.73,3-.73s2.11.25,3,.73c.9.49,1.6,1.19,2.12,2.1.52.91.78,1.95.78,3.13s-.27,2.22-.8,3.13c-.53.91-1.26,1.61-2.17,2.11s-1.93.75-3.03.75-2.08-.25-2.96-.75ZM119.74,275.4c.54-.29.98-.74,1.31-1.32s.5-1.3.5-2.14-.16-1.55-.48-2.13c-.32-.58-.75-1.02-1.28-1.31s-1.11-.44-1.72-.44-1.19.15-1.71.44c-.52.29-.94.73-1.25,1.31-.31.58-.46,1.29-.46,2.13,0,1.25.32,2.21.96,2.89s1.44,1.02,2.41,1.02c.62,0,1.19-.15,1.73-.44Z"/>
            <path class="cls-5" d="M128.14,277.42c-.72-.33-1.29-.78-1.71-1.34s-.64-1.2-.67-1.9h2.48c.04.49.28.9.7,1.23.43.33.96.49,1.61.49s1.19-.13,1.56-.39c.37-.26.56-.59.56-1,0-.43-.21-.76-.62-.97s-1.07-.44-1.96-.69c-.87-.24-1.58-.47-2.12-.69-.55-.22-1.02-.57-1.42-1.03-.4-.46-.6-1.07-.6-1.83,0-.62.18-1.18.55-1.69.36-.51.88-.91,1.56-1.21.68-.29,1.46-.44,2.34-.44,1.32,0,2.38.33,3.18,1s1.24,1.57,1.29,2.72h-2.39c-.04-.52-.25-.93-.63-1.24-.38-.31-.89-.46-1.53-.46s-1.11.12-1.45.36c-.34.24-.5.55-.5.94,0,.31.11.57.34.78.22.21.5.38.82.49.32.12.8.27,1.43.45.84.22,1.53.45,2.07.68.54.23,1,.57,1.4,1.02.39.45.59,1.04.61,1.78,0,.66-.18,1.25-.55,1.76s-.88.92-1.54,1.22c-.67.29-1.45.44-2.34.44s-1.73-.17-2.45-.49Z"/>
            <path class="cls-5" d="M153.58,272.84h-8.84c.07.92.41,1.67,1.03,2.23.62.56,1.37.84,2.27.84,1.29,0,2.2-.54,2.73-1.62h2.58c-.35,1.06-.98,1.94-1.9,2.62-.92.68-2.05,1.02-3.41,1.02-1.11,0-2.1-.25-2.97-.75s-1.56-1.2-2.06-2.1c-.5-.9-.75-1.95-.75-3.14s.24-2.24.72-3.14c.48-.9,1.16-1.6,2.04-2.09.87-.49,1.88-.73,3.01-.73s2.07.24,2.92.71,1.52,1.14,1.99,2.01c.48.86.71,1.85.71,2.97,0,.43-.03.83-.08,1.18ZM151.17,270.9c-.01-.88-.33-1.59-.94-2.12-.62-.53-1.38-.8-2.29-.8-.83,0-1.53.26-2.12.79-.59.52-.94,1.24-1.05,2.13h6.4Z"/>
            <path class="cls-5" d="M161.41,268.8c.48-.9,1.14-1.59,1.97-2.09s1.76-.75,2.78-.75c.76,0,1.5.16,2.24.49.74.33,1.32.77,1.75,1.31v-5.59h2.42v15.54h-2.42v-1.74c-.39.56-.93,1.02-1.63,1.39-.69.36-1.49.55-2.38.55-1.01,0-1.93-.26-2.76-.77-.83-.51-1.49-1.23-1.97-2.14-.48-.92-.72-1.96-.72-3.12s.24-2.19.72-3.09ZM169.66,269.85c-.33-.59-.76-1.04-1.29-1.34s-1.11-.46-1.72-.46-1.19.15-1.72.45-.96.74-1.29,1.32-.49,1.27-.49,2.07.16,1.5.49,2.1c.33.6.76,1.06,1.3,1.38.54.31,1.11.47,1.71.47s1.19-.15,1.72-.46c.53-.31.96-.76,1.29-1.35.33-.6.49-1.29.49-2.09s-.17-1.49-.49-2.08Z"/>
            <path class="cls-5" d="M175.84,264.18c-.29-.29-.44-.66-.44-1.09s.15-.8.44-1.09c.29-.29.66-.44,1.09-.44s.78.15,1.07.44c.29.29.44.66.44,1.09s-.15.8-.44,1.09-.65.44-1.07.44-.8-.15-1.09-.44ZM178.11,266.16v11.57h-2.39v-11.57h2.39Z"/>
            <path class="cls-5" d="M183.01,277.42c-.72-.33-1.29-.78-1.71-1.34s-.64-1.2-.67-1.9h2.48c.04.49.28.9.7,1.23.43.33.96.49,1.61.49s1.19-.13,1.56-.39c.37-.26.56-.59.56-1,0-.43-.21-.76-.62-.97s-1.07-.44-1.96-.69c-.87-.24-1.58-.47-2.12-.69-.55-.22-1.02-.57-1.42-1.03-.4-.46-.6-1.07-.6-1.83,0-.62.18-1.18.55-1.69s.89-.91,1.56-1.21c.68-.29,1.46-.44,2.34-.44,1.32,0,2.38.33,3.18,1,.8.67,1.24,1.57,1.29,2.72h-2.39c-.04-.52-.25-.93-.63-1.24-.38-.31-.89-.46-1.53-.46s-1.11.12-1.45.36-.5.55-.5.94c0,.31.11.57.34.78s.5.38.82.49c.32.12.8.27,1.43.45.84.22,1.53.45,2.07.68.54.23,1,.57,1.4,1.02.39.45.59,1.04.61,1.78,0,.66-.18,1.25-.55,1.76-.36.52-.88.92-1.54,1.22s-1.45.44-2.34.44-1.73-.17-2.45-.49Z"/>
            <path class="cls-5" d="M192.4,268.79c.48-.9,1.15-1.6,2-2.09.85-.49,1.83-.73,2.94-.73,1.4,0,2.56.33,3.48,1,.92.67,1.54,1.61,1.86,2.85h-2.58c-.21-.57-.55-1.02-1.01-1.34-.46-.32-1.04-.48-1.74-.48-.98,0-1.76.35-2.34,1.04-.58.69-.87,1.66-.87,2.91s.29,2.22.87,2.92,1.36,1.05,2.34,1.05c1.39,0,2.3-.61,2.75-1.83h2.58c-.34,1.18-.97,2.11-1.89,2.8-.92.69-2.07,1.04-3.44,1.04-1.11,0-2.09-.25-2.94-.75s-1.52-1.2-2-2.1c-.48-.9-.72-1.95-.72-3.14s.24-2.24.72-3.14Z"/>
            <path class="cls-5" d="M215.55,266.16v11.57h-2.39v-1.37c-.38.48-.87.85-1.48,1.12-.61.27-1.26.41-1.94.41-.91,0-1.73-.19-2.45-.57-.72-.38-1.29-.94-1.7-1.68-.41-.74-.62-1.64-.62-2.69v-6.8h2.37v6.45c0,1.04.26,1.83.78,2.38.52.55,1.22.83,2.12.83s1.61-.28,2.13-.83c.53-.55.79-1.35.79-2.38v-6.45h2.39Z"/>
            <path class="cls-5" d="M220.46,277.42c-.72-.33-1.29-.78-1.71-1.34s-.64-1.2-.67-1.9h2.48c.04.49.28.9.7,1.23.43.33.96.49,1.61.49s1.19-.13,1.56-.39c.37-.26.56-.59.56-1,0-.43-.21-.76-.62-.97s-1.07-.44-1.96-.69c-.87-.24-1.58-.47-2.12-.69-.55-.22-1.02-.57-1.42-1.03-.4-.46-.6-1.07-.6-1.83,0-.62.18-1.18.55-1.69s.89-.91,1.56-1.21c.68-.29,1.46-.44,2.34-.44,1.32,0,2.38.33,3.18,1,.8.67,1.24,1.57,1.29,2.72h-2.39c-.04-.52-.25-.93-.63-1.24-.38-.31-.89-.46-1.53-.46s-1.11.12-1.45.36-.5.55-.5.94c0,.31.11.57.34.78s.5.38.82.49c.32.12.8.27,1.43.45.84.22,1.53.45,2.07.68.54.23,1,.57,1.4,1.02.39.45.59,1.04.61,1.78,0,.66-.18,1.25-.55,1.76-.36.52-.88.92-1.54,1.22s-1.45.44-2.34.44-1.73-.17-2.45-.49Z"/>
            <path class="cls-5" d="M231.67,277.42c-.72-.33-1.29-.78-1.71-1.34s-.64-1.2-.67-1.9h2.48c.04.49.28.9.7,1.23.43.33.96.49,1.61.49s1.19-.13,1.56-.39c.37-.26.56-.59.56-1,0-.43-.21-.76-.62-.97s-1.07-.44-1.96-.69c-.87-.24-1.58-.47-2.12-.69-.55-.22-1.02-.57-1.42-1.03-.4-.46-.6-1.07-.6-1.83,0-.62.18-1.18.55-1.69s.89-.91,1.56-1.21c.68-.29,1.46-.44,2.34-.44,1.32,0,2.38.33,3.18,1,.8.67,1.24,1.57,1.29,2.72h-2.39c-.04-.52-.25-.93-.63-1.24-.38-.31-.89-.46-1.53-.46s-1.11.12-1.45.36-.5.55-.5.94c0,.31.11.57.34.78s.5.38.82.49c.32.12.8.27,1.43.45.84.22,1.53.45,2.07.68.54.23,1,.57,1.4,1.02.39.45.59,1.04.61,1.78,0,.66-.18,1.25-.55,1.76-.36.52-.88.92-1.54,1.22s-1.45.44-2.34.44-1.73-.17-2.45-.49Z"/>
            <path class="cls-5" d="M241.06,268.8c.48-.9,1.14-1.59,1.97-2.09s1.75-.75,2.76-.75c.91,0,1.7.18,2.38.54.68.36,1.22.8,1.63,1.33v-1.68h2.42v11.57h-2.42v-1.72c-.41.55-.96,1-1.66,1.36-.7.36-1.5.55-2.39.55-.99,0-1.9-.26-2.73-.77-.83-.51-1.48-1.23-1.96-2.14-.48-.92-.72-1.96-.72-3.12s.24-2.19.72-3.09ZM249.31,269.85c-.33-.59-.76-1.04-1.29-1.34s-1.11-.46-1.72-.46-1.19.15-1.72.45-.96.74-1.29,1.32-.49,1.27-.49,2.07.16,1.5.49,2.1c.33.6.76,1.06,1.3,1.38.54.31,1.11.47,1.71.47s1.19-.15,1.72-.46c.53-.31.96-.76,1.29-1.35.33-.6.49-1.29.49-2.09s-.17-1.49-.49-2.08ZM244.05,263.12c.42-.41.95-.62,1.58-.62.27,0,.5.04.69.13s.43.21.71.38c.21.14.39.25.54.31.15.07.31.11.49.11.24,0,.44-.07.6-.22s.26-.37.3-.66h1.34c-.11.81-.38,1.42-.8,1.84-.42.41-.95.62-1.58.62-.27,0-.5-.05-.71-.14s-.44-.22-.69-.39c-.25-.15-.44-.26-.58-.33-.13-.06-.28-.09-.45-.09-.24,0-.44.08-.6.23-.16.15-.26.38-.3.67h-1.34c.11-.81.38-1.42.8-1.84Z"/>
            <path class="cls-5" d="M257.43,277.17c-.88-.5-1.58-1.2-2.08-2.1-.5-.9-.76-1.95-.76-3.14s.26-2.22.78-3.13c.52-.91,1.22-1.61,2.12-2.1.9-.49,1.9-.73,3-.73s2.11.25,3,.73c.9.49,1.6,1.19,2.12,2.1.52.91.78,1.95.78,3.13s-.27,2.22-.8,3.13-1.26,1.61-2.17,2.11c-.92.5-1.93.75-3.04.75s-2.08-.25-2.96-.75ZM262.12,275.4c.54-.29.98-.74,1.31-1.32s.5-1.3.5-2.14-.16-1.55-.48-2.13c-.32-.58-.75-1.02-1.28-1.31s-1.11-.44-1.72-.44-1.19.15-1.71.44c-.52.29-.94.73-1.25,1.31-.31.58-.46,1.29-.46,2.13,0,1.25.32,2.21.96,2.89s1.44,1.02,2.4,1.02c.62,0,1.19-.15,1.73-.44Z"/>
          </g>
          <rect class="cls-7" x="275.97" y="264.08" width="76.29" height="13.83"/>
        </g>
        <g>
          <g>
            <path class="cls-5" d="M35.09,231v14.59h-2.39v-10l-4.45,10h-1.66l-4.47-10v10h-2.39v-14.59h2.58l5.12,11.44,5.1-11.44h2.56Z"/>
            <path class="cls-5" d="M48.76,240.7h-8.84c.07.92.41,1.67,1.03,2.23.62.56,1.37.84,2.27.84,1.29,0,2.2-.54,2.73-1.62h2.58c-.35,1.06-.98,1.94-1.9,2.62-.92.68-2.05,1.02-3.41,1.02-1.11,0-2.1-.25-2.97-.75-.88-.5-1.56-1.2-2.06-2.1-.5-.9-.75-1.95-.75-3.14s.24-2.24.72-3.14c.48-.9,1.16-1.6,2.04-2.09.87-.49,1.88-.73,3.01-.73s2.07.24,2.92.71c.85.48,1.52,1.14,1.99,2.01.48.86.71,1.85.71,2.97,0,.43-.03.83-.08,1.18ZM46.34,238.77c-.01-.88-.33-1.59-.95-2.12-.62-.53-1.38-.8-2.29-.8-.83,0-1.53.26-2.12.79-.59.52-.94,1.24-1.05,2.13h6.41Z"/>
            <path class="cls-5" d="M53.99,235.98v6.41c0,.43.1.75.3.93.2.19.55.28,1.04.28h1.47v2h-1.89c-1.08,0-1.9-.25-2.48-.76s-.86-1.32-.86-2.46v-6.41h-1.37v-1.95h1.37v-2.88h2.42v2.88h2.81v1.95h-2.81Z"/>
            <path class="cls-5" d="M61.06,245.04c-.88-.5-1.57-1.2-2.08-2.1-.5-.9-.76-1.95-.76-3.14s.26-2.22.78-3.13,1.22-1.61,2.12-2.1c.9-.49,1.9-.73,3-.73s2.11.25,3,.73c.9.49,1.6,1.19,2.12,2.1.52.91.78,1.95.78,3.13s-.27,2.22-.8,3.13c-.53.91-1.26,1.61-2.17,2.11s-1.93.75-3.03.75-2.08-.25-2.96-.75ZM65.76,243.26c.54-.29.98-.74,1.31-1.32s.5-1.3.5-2.14-.16-1.55-.48-2.13c-.32-.58-.75-1.02-1.28-1.31s-1.11-.44-1.72-.44-1.19.15-1.71.44c-.52.29-.94.73-1.25,1.31-.31.58-.46,1.29-.46,2.13,0,1.25.32,2.21.96,2.89s1.44,1.02,2.41,1.02c.62,0,1.19-.15,1.73-.44Z"/>
            <path class="cls-5" d="M72.33,236.67c.48-.9,1.14-1.59,1.97-2.09s1.76-.75,2.78-.75c.76,0,1.5.16,2.24.49.73.33,1.32.77,1.75,1.31v-5.59h2.42v15.54h-2.42v-1.74c-.39.56-.93,1.02-1.63,1.39-.69.36-1.49.55-2.38.55-1.01,0-1.93-.26-2.76-.77-.83-.51-1.49-1.23-1.97-2.14-.48-.92-.72-1.96-.72-3.12s.24-2.19.72-3.09ZM80.58,237.72c-.33-.59-.76-1.04-1.29-1.34s-1.11-.46-1.72-.46-1.19.15-1.72.45c-.53.3-.96.74-1.29,1.32s-.49,1.27-.49,2.07.16,1.5.49,2.1c.33.6.76,1.06,1.3,1.38.54.31,1.11.47,1.71.47s1.19-.15,1.72-.46c.53-.31.96-.76,1.29-1.35.33-.6.49-1.29.49-2.09s-.16-1.49-.49-2.08Z"/>
            <path class="cls-5" d="M88.7,245.04c-.88-.5-1.58-1.2-2.08-2.1-.5-.9-.76-1.95-.76-3.14s.26-2.22.78-3.13c.52-.91,1.22-1.61,2.12-2.1.9-.49,1.9-.73,3-.73s2.11.25,3,.73c.9.49,1.6,1.19,2.12,2.1.52.91.78,1.95.78,3.13s-.27,2.22-.8,3.13-1.26,1.61-2.17,2.11-1.93.75-3.03.75-2.08-.25-2.96-.75ZM93.39,243.26c.54-.29.98-.74,1.31-1.32s.5-1.3.5-2.14-.16-1.55-.48-2.13c-.32-.58-.75-1.02-1.28-1.31s-1.11-.44-1.72-.44-1.19.15-1.71.44-.94.73-1.25,1.31c-.31.58-.46,1.29-.46,2.13,0,1.25.32,2.21.96,2.89.64.68,1.44,1.02,2.4,1.02.62,0,1.19-.15,1.73-.44Z"/>
            <path class="cls-5" d="M102.43,230.05v15.54h-2.39v-15.54h2.39Z"/>
            <path class="cls-5" d="M107.64,245.04c-.88-.5-1.57-1.2-2.08-2.1-.5-.9-.76-1.95-.76-3.14s.26-2.22.78-3.13,1.22-1.61,2.12-2.1c.9-.49,1.9-.73,3-.73s2.11.25,3,.73c.9.49,1.6,1.19,2.12,2.1.52.91.78,1.95.78,3.13s-.27,2.22-.8,3.13c-.53.91-1.26,1.61-2.17,2.11s-1.93.75-3.03.75-2.08-.25-2.96-.75ZM112.33,243.26c.54-.29.98-.74,1.31-1.32s.5-1.3.5-2.14-.16-1.55-.48-2.13c-.32-.58-.75-1.02-1.28-1.31s-1.11-.44-1.72-.44-1.19.15-1.71.44c-.52.29-.94.73-1.25,1.31-.31.58-.46,1.29-.46,2.13,0,1.25.32,2.21.96,2.89s1.44,1.02,2.41,1.02c.62,0,1.19-.15,1.73-.44Z"/>
            <path class="cls-5" d="M126.03,234.37c.69.36,1.24.8,1.63,1.33v-1.68h2.42v11.76c0,1.06-.22,2.01-.67,2.84s-1.1,1.49-1.94,1.96c-.85.48-1.86.71-3.03.71-1.57,0-2.87-.37-3.91-1.1s-1.62-1.73-1.76-2.99h2.37c.18.6.57,1.09,1.17,1.46.59.37,1.31.56,2.13.56.97,0,1.75-.29,2.34-.88s.89-1.44.89-2.56v-1.93c-.41.55-.96,1-1.65,1.38-.69.37-1.48.56-2.36.56-1.01,0-1.93-.26-2.76-.77-.83-.51-1.49-1.23-1.97-2.14-.48-.92-.72-1.96-.72-3.12s.24-2.19.72-3.09c.48-.9,1.14-1.59,1.97-2.09s1.75-.75,2.76-.75c.9,0,1.69.18,2.38.54ZM127.16,237.72c-.33-.59-.76-1.04-1.29-1.34s-1.11-.46-1.72-.46-1.19.15-1.72.45c-.53.3-.96.74-1.29,1.32s-.49,1.27-.49,2.07.16,1.5.49,2.1c.33.6.76,1.06,1.3,1.38.54.31,1.11.47,1.71.47s1.19-.15,1.72-.46c.53-.31.96-.76,1.29-1.35.33-.6.49-1.29.49-2.09s-.16-1.49-.49-2.08Z"/>
            <path class="cls-5" d="M133.34,232.05c-.29-.29-.44-.66-.44-1.09s.15-.8.44-1.09c.29-.29.66-.44,1.09-.44s.78.15,1.07.44c.29.29.44.66.44,1.09s-.15.8-.44,1.09c-.29.29-.65.44-1.07.44s-.8-.15-1.09-.44ZM135.61,234.02v11.57h-2.39v-11.57h2.39Z"/>
            <path class="cls-5" d="M138.69,236.67c.48-.9,1.14-1.59,1.97-2.09.83-.5,1.75-.75,2.76-.75.91,0,1.71.18,2.38.54.68.36,1.22.8,1.63,1.33v-1.68h2.42v11.57h-2.42v-1.72c-.41.55-.96,1-1.66,1.36-.7.36-1.5.55-2.39.55-.99,0-1.9-.26-2.73-.77-.83-.51-1.48-1.23-1.96-2.14-.48-.92-.72-1.96-.72-3.12s.24-2.19.72-3.09ZM146.94,237.72c-.33-.59-.76-1.04-1.29-1.34s-1.11-.46-1.72-.46-1.19.15-1.72.45-.96.74-1.29,1.32c-.33.58-.49,1.27-.49,2.07s.17,1.5.49,2.1c.33.6.76,1.06,1.3,1.38.54.31,1.11.47,1.71.47s1.19-.15,1.72-.46c.53-.31.96-.76,1.29-1.35.33-.6.49-1.29.49-2.09s-.17-1.49-.49-2.08Z"/>
          </g>
          <rect class="cls-7" x="156.86" y="231.95" width="195.03" height="13.83"/>
        </g>
      </g>
      <g>
        <g>
          <g>
            <path class="cls-5" d="M28.58,374.08h-6.11l-1.05,2.98h-2.5l5.23-14.62h2.77l5.23,14.62h-2.52l-1.05-2.98ZM27.9,372.13l-2.37-6.78-2.39,6.78h4.77Z"/>
            <path class="cls-5" d="M41.46,365.84c.69.36,1.24.8,1.63,1.33v-1.68h2.42v11.76c0,1.06-.22,2.01-.67,2.84-.45.83-1.1,1.49-1.94,1.96-.85.48-1.86.71-3.03.71-1.57,0-2.87-.37-3.91-1.1s-1.62-1.73-1.76-2.99h2.37c.18.6.57,1.09,1.17,1.46.6.37,1.31.56,2.13.56.97,0,1.75-.29,2.34-.88.59-.59.89-1.44.89-2.56v-1.93c-.41.55-.96,1-1.65,1.38-.69.37-1.48.56-2.36.56-1.01,0-1.93-.26-2.76-.77-.83-.51-1.49-1.23-1.97-2.14-.48-.92-.72-1.96-.72-3.12s.24-2.19.72-3.09c.48-.9,1.14-1.59,1.97-2.09.83-.5,1.75-.75,2.76-.75.9,0,1.69.18,2.38.54ZM42.59,369.19c-.33-.59-.76-1.04-1.29-1.34s-1.11-.46-1.72-.46-1.19.15-1.72.45-.96.74-1.29,1.32c-.33.58-.49,1.27-.49,2.07s.17,1.5.49,2.1c.33.6.76,1.06,1.3,1.38.54.31,1.11.47,1.71.47s1.19-.15,1.72-.46c.53-.31.96-.76,1.29-1.35.33-.6.49-1.29.49-2.09s-.17-1.49-.49-2.08Z"/>
            <path class="cls-5" d="M52.44,365.79c.58-.33,1.27-.49,2.07-.49v2.48h-.61c-.94,0-1.65.24-2.13.71-.48.48-.72,1.3-.72,2.48v6.09h-2.39v-11.57h2.39v1.68c.35-.59.81-1.05,1.4-1.38Z"/>
            <path class="cls-5" d="M56.64,368.14c.48-.9,1.14-1.59,1.97-2.09.83-.5,1.75-.75,2.76-.75.91,0,1.71.18,2.38.54.68.36,1.22.8,1.63,1.33v-1.68h2.42v11.57h-2.42v-1.72c-.41.55-.96,1-1.66,1.36-.7.36-1.5.55-2.39.55-.99,0-1.9-.26-2.73-.77-.83-.51-1.48-1.23-1.96-2.14-.48-.92-.72-1.96-.72-3.12s.24-2.19.72-3.09ZM64.89,369.19c-.33-.59-.76-1.04-1.29-1.34s-1.11-.46-1.72-.46-1.19.15-1.72.45-.96.74-1.29,1.32c-.33.58-.49,1.27-.49,2.07s.17,1.5.49,2.1c.33.6.76,1.06,1.3,1.38.54.31,1.11.47,1.71.47s1.19-.15,1.72-.46c.53-.31.96-.76,1.29-1.35.33-.6.49-1.29.49-2.09s-.17-1.49-.49-2.08Z"/>
            <path class="cls-5" d="M70.88,368.14c.48-.9,1.14-1.59,1.97-2.09s1.76-.75,2.78-.75c.76,0,1.5.16,2.24.49.73.33,1.32.77,1.75,1.31v-5.59h2.42v15.54h-2.42v-1.74c-.39.56-.93,1.02-1.63,1.39-.69.36-1.49.55-2.38.55-1.01,0-1.93-.26-2.76-.77-.83-.51-1.49-1.23-1.97-2.14-.48-.92-.72-1.96-.72-3.12s.24-2.19.72-3.09ZM79.13,369.19c-.33-.59-.76-1.04-1.29-1.34s-1.11-.46-1.72-.46-1.19.15-1.72.45c-.53.3-.96.74-1.29,1.32s-.49,1.27-.49,2.07.16,1.5.49,2.1c.33.6.76,1.06,1.3,1.38.54.31,1.11.47,1.71.47s1.19-.15,1.72-.46c.53-.31.96-.76,1.29-1.35.33-.6.49-1.29.49-2.09s-.16-1.49-.49-2.08Z"/>
            <path class="cls-5" d="M95.71,372.17h-8.84c.07.92.41,1.67,1.03,2.23.62.56,1.37.84,2.27.84,1.29,0,2.2-.54,2.73-1.62h2.58c-.35,1.06-.98,1.94-1.9,2.62-.92.68-2.05,1.02-3.41,1.02-1.11,0-2.1-.25-2.97-.75s-1.56-1.2-2.06-2.1c-.5-.9-.75-1.95-.75-3.14s.24-2.24.72-3.14c.48-.9,1.16-1.6,2.04-2.09.88-.49,1.88-.73,3.01-.73s2.06.24,2.92.71c.85.48,1.52,1.14,2,2.01.48.86.71,1.85.71,2.97,0,.43-.03.83-.08,1.18ZM93.3,370.24c-.01-.88-.33-1.59-.95-2.12-.62-.53-1.38-.8-2.29-.8-.83,0-1.53.26-2.12.79-.59.52-.94,1.24-1.05,2.13h6.41Z"/>
            <path class="cls-5" d="M98.07,368.13c.48-.9,1.15-1.6,2.01-2.09.85-.49,1.83-.73,2.94-.73,1.4,0,2.56.33,3.48,1s1.54,1.61,1.86,2.85h-2.58c-.21-.57-.55-1.02-1.01-1.34s-1.04-.48-1.74-.48c-.98,0-1.76.35-2.34,1.04-.58.69-.87,1.66-.87,2.91s.29,2.22.87,2.92,1.36,1.05,2.34,1.05c1.39,0,2.3-.61,2.75-1.83h2.58c-.34,1.18-.97,2.11-1.89,2.8s-2.07,1.04-3.44,1.04c-1.11,0-2.09-.25-2.94-.75-.85-.5-1.52-1.2-2.01-2.1-.48-.9-.72-1.95-.72-3.14s.24-2.24.72-3.14Z"/>
            <path class="cls-5" d="M110.87,363.52c-.29-.29-.44-.66-.44-1.09s.15-.8.44-1.09c.29-.29.66-.44,1.09-.44s.78.15,1.07.44c.29.29.44.66.44,1.09s-.15.8-.44,1.09c-.29.29-.65.44-1.07.44s-.8-.15-1.09-.44ZM113.14,365.49v11.57h-2.39v-11.57h2.39Z"/>
            <path class="cls-5" d="M132.75,365.87c.72.38,1.29.94,1.7,1.68.41.74.62,1.64.62,2.69v6.83h-2.37v-6.47c0-1.04-.26-1.83-.78-2.38-.52-.55-1.23-.83-2.12-.83s-1.61.28-2.13.83c-.53.55-.79,1.35-.79,2.38v6.47h-2.37v-6.47c0-1.04-.26-1.83-.78-2.38-.52-.55-1.23-.83-2.12-.83s-1.61.28-2.13.83c-.52.55-.79,1.35-.79,2.38v6.47h-2.39v-11.57h2.39v1.32c.39-.48.89-.85,1.49-1.11.6-.27,1.25-.4,1.93-.4.92,0,1.75.2,2.48.59.73.39,1.29.96,1.68,1.7.35-.7.9-1.26,1.64-1.67s1.54-.62,2.39-.62c.91,0,1.72.19,2.45.57Z"/>
            <path class="cls-5" d="M148.63,372.17h-8.84c.07.92.41,1.67,1.03,2.23.62.56,1.37.84,2.27.84,1.29,0,2.2-.54,2.73-1.62h2.58c-.35,1.06-.98,1.94-1.9,2.62-.92.68-2.06,1.02-3.41,1.02-1.11,0-2.1-.25-2.97-.75-.88-.5-1.56-1.2-2.06-2.1-.5-.9-.75-1.95-.75-3.14s.24-2.24.72-3.14c.48-.9,1.16-1.6,2.04-2.09.87-.49,1.88-.73,3.01-.73s2.07.24,2.92.71c.85.48,1.52,1.14,1.99,2.01.48.86.71,1.85.71,2.97,0,.43-.03.83-.08,1.18ZM146.22,370.24c-.01-.88-.33-1.59-.94-2.12-.62-.53-1.38-.8-2.29-.8-.83,0-1.53.26-2.12.79-.59.52-.94,1.24-1.05,2.13h6.4Z"/>
            <path class="cls-5" d="M159.35,365.87c.72.38,1.28.94,1.69,1.68s.61,1.64.61,2.69v6.83h-2.37v-6.47c0-1.04-.26-1.83-.78-2.38-.52-.55-1.22-.83-2.12-.83s-1.61.28-2.13.83c-.53.55-.79,1.35-.79,2.38v6.47h-2.39v-11.57h2.39v1.32c.39-.48.89-.85,1.5-1.11.61-.27,1.26-.4,1.94-.4.91,0,1.73.19,2.45.57Z"/>
            <path class="cls-5" d="M167.49,367.44v6.41c0,.43.1.75.3.93.2.19.55.28,1.04.28h1.47v2h-1.89c-1.08,0-1.9-.25-2.48-.76-.57-.5-.86-1.32-.86-2.46v-6.41h-1.37v-1.95h1.37v-2.88h2.42v2.88h2.81v1.95h-2.81Z"/>
            <path class="cls-5" d="M174.57,376.5c-.88-.5-1.58-1.2-2.08-2.1-.5-.9-.76-1.95-.76-3.14s.26-2.22.78-3.13c.52-.91,1.22-1.61,2.12-2.1.9-.49,1.9-.73,3-.73s2.11.25,3,.73c.9.49,1.6,1.19,2.12,2.1.52.91.78,1.95.78,3.13s-.27,2.22-.8,3.13-1.26,1.61-2.17,2.11c-.92.5-1.93.75-3.04.75s-2.08-.25-2.96-.75ZM179.26,374.73c.54-.29.98-.74,1.31-1.32s.5-1.3.5-2.14-.16-1.55-.48-2.13c-.32-.58-.75-1.02-1.28-1.31s-1.11-.44-1.72-.44-1.19.15-1.71.44c-.52.29-.94.73-1.25,1.31-.31.58-.46,1.29-.46,2.13,0,1.25.32,2.21.96,2.89s1.44,1.02,2.4,1.02c.62,0,1.19-.15,1.73-.44Z"/>
            <path class="cls-5" d="M187.66,376.76c-.72-.33-1.29-.78-1.71-1.34s-.64-1.2-.67-1.9h2.48c.04.49.28.9.7,1.23.43.33.96.49,1.61.49s1.19-.13,1.56-.39c.37-.26.56-.59.56-1,0-.43-.21-.76-.62-.97s-1.07-.44-1.96-.69c-.87-.24-1.58-.47-2.12-.69-.55-.22-1.02-.57-1.42-1.03-.4-.46-.6-1.07-.6-1.83,0-.62.18-1.18.55-1.69s.89-.91,1.56-1.21c.68-.29,1.46-.44,2.34-.44,1.32,0,2.38.33,3.18,1,.8.67,1.24,1.57,1.29,2.72h-2.39c-.04-.52-.25-.93-.63-1.24-.38-.31-.89-.46-1.53-.46s-1.11.12-1.45.36-.5.55-.5.94c0,.31.11.57.34.78s.5.38.82.49c.32.12.8.27,1.43.45.84.22,1.53.45,2.07.68.54.23,1,.57,1.4,1.02.39.45.59,1.04.61,1.78,0,.66-.18,1.25-.55,1.76-.36.52-.88.92-1.54,1.22s-1.45.44-2.34.44-1.73-.17-2.45-.49Z"/>
          </g>
          <rect class="cls-7" x="202.08" y="363.46" width="149.81" height="13.83"/>
        </g>
        <g>
          <g>
            <path class="cls-5" d="M28.51,437.8h-6.11l-1.05,2.98h-2.5l5.23-14.62h2.77l5.23,14.62h-2.52l-1.05-2.98ZM27.84,435.84l-2.37-6.78-2.39,6.78h4.77Z"/>
            <path class="cls-5" d="M42.64,429.59c.72.38,1.28.94,1.69,1.68s.61,1.64.61,2.69v6.83h-2.37v-6.47c0-1.04-.26-1.83-.78-2.38-.52-.55-1.23-.83-2.12-.83s-1.61.28-2.13.83c-.52.55-.79,1.35-.79,2.38v6.47h-2.39v-11.57h2.39v1.32c.39-.48.89-.85,1.5-1.11.61-.27,1.26-.4,1.94-.4.91,0,1.72.19,2.45.57Z"/>
            <path class="cls-5" d="M58.5,435.89h-8.84c.07.92.41,1.67,1.03,2.23.62.56,1.37.84,2.27.84,1.29,0,2.2-.54,2.73-1.62h2.58c-.35,1.06-.98,1.94-1.9,2.62-.92.68-2.05,1.02-3.41,1.02-1.11,0-2.1-.25-2.97-.75s-1.56-1.2-2.06-2.1c-.5-.9-.75-1.95-.75-3.14s.24-2.24.72-3.14c.48-.9,1.16-1.6,2.04-2.09.88-.49,1.88-.73,3.01-.73s2.06.24,2.92.71c.85.48,1.52,1.14,2,2.01.48.86.71,1.85.71,2.97,0,.43-.03.83-.08,1.18ZM56.09,433.95c-.01-.88-.33-1.59-.95-2.12-.62-.53-1.38-.8-2.29-.8-.83,0-1.53.26-2.12.79-.59.52-.94,1.24-1.05,2.13h6.41Z"/>
            <path class="cls-5" d="M65.89,434.92l3.74,5.86h-2.71l-2.5-3.93-2.35,3.93h-2.5l3.74-5.69-3.74-5.88h2.71l2.5,3.93,2.35-3.93h2.5l-3.74,5.71Z"/>
            <path class="cls-5" d="M73.47,440.22c-.88-.5-1.58-1.2-2.08-2.1-.5-.9-.76-1.95-.76-3.14s.26-2.22.78-3.13c.52-.91,1.22-1.61,2.12-2.1.9-.49,1.9-.73,3-.73s2.11.25,3,.73c.9.49,1.6,1.19,2.12,2.1.52.91.78,1.95.78,3.13s-.27,2.22-.8,3.13-1.26,1.61-2.17,2.11-1.93.75-3.03.75-2.08-.25-2.96-.75ZM78.17,438.45c.54-.29.98-.74,1.31-1.32s.5-1.3.5-2.14-.16-1.55-.48-2.13c-.32-.58-.75-1.02-1.28-1.31s-1.11-.44-1.72-.44-1.19.15-1.71.44-.94.73-1.25,1.31c-.31.58-.46,1.29-.46,2.13,0,1.25.32,2.21.96,2.89.64.68,1.44,1.02,2.4,1.02.62,0,1.19-.15,1.73-.44Z"/>
            <path class="cls-5" d="M86.57,440.47c-.72-.33-1.29-.78-1.71-1.34-.42-.57-.64-1.2-.67-1.9h2.48c.04.49.28.9.7,1.23s.96.49,1.61.49,1.19-.13,1.56-.39c.37-.26.56-.59.56-1,0-.43-.21-.76-.62-.97s-1.07-.44-1.96-.69c-.87-.24-1.58-.47-2.12-.69-.55-.22-1.02-.57-1.42-1.03-.4-.46-.6-1.07-.6-1.83,0-.62.18-1.18.55-1.69s.89-.91,1.56-1.21,1.46-.44,2.34-.44c1.32,0,2.38.33,3.18,1,.8.67,1.24,1.57,1.29,2.72h-2.39c-.04-.52-.25-.93-.63-1.24-.38-.31-.89-.46-1.53-.46s-1.11.12-1.45.36-.5.55-.5.94c0,.31.11.57.34.78s.5.38.82.49c.32.12.8.27,1.43.45.84.22,1.53.45,2.07.68.54.23,1,.57,1.4,1.02s.59,1.04.61,1.78c0,.66-.18,1.25-.55,1.76-.36.52-.88.92-1.54,1.22s-1.45.44-2.34.44-1.73-.17-2.45-.49Z"/>
          </g>
          <rect class="cls-7" x="103.18" y="427.14" width="248.72" height="13.83"/>
        </g>
        <g>
          <g>
            <path class="cls-5" d="M26.43,409.05l-3.36-5.84h-1.83v5.84h-2.39v-14.59h5.04c1.12,0,2.07.2,2.84.59.78.39,1.36.92,1.74,1.58s.58,1.39.58,2.21c0,.95-.28,1.82-.83,2.59-.55.78-1.4,1.31-2.55,1.59l3.61,6.05h-2.86ZM21.25,401.3h2.65c.9,0,1.57-.22,2.03-.67.45-.45.68-1.05.68-1.81s-.22-1.35-.67-1.78c-.45-.43-1.13-.64-2.04-.64h-2.65v4.89Z"/>
            <path class="cls-5" d="M42.65,404.15h-8.84c.07.92.41,1.67,1.03,2.23.62.56,1.37.84,2.27.84,1.29,0,2.2-.54,2.73-1.62h2.58c-.35,1.06-.98,1.94-1.9,2.62-.92.68-2.05,1.02-3.41,1.02-1.11,0-2.1-.25-2.97-.75-.88-.5-1.56-1.2-2.06-2.1-.5-.9-.75-1.95-.75-3.14s.24-2.24.72-3.14c.48-.9,1.16-1.6,2.04-2.09.87-.49,1.88-.73,3.01-.73s2.07.24,2.92.71c.85.48,1.52,1.14,1.99,2.01.48.86.71,1.85.71,2.97,0,.43-.03.83-.08,1.18ZM40.23,402.22c-.01-.88-.33-1.59-.95-2.12-.62-.53-1.38-.8-2.29-.8-.83,0-1.53.26-2.12.79-.59.52-.94,1.24-1.05,2.13h6.41Z"/>
            <path class="cls-5" d="M49.93,399.43h-2.14v9.62h-2.42v-9.62h-1.37v-1.95h1.37v-.82c0-1.33.35-2.3,1.06-2.91.71-.61,1.82-.91,3.33-.91v2c-.73,0-1.24.14-1.53.41-.29.27-.44.75-.44,1.42v.82h2.14v1.95Z"/>
            <path class="cls-5" d="M62.57,404.15h-8.84c.07.92.41,1.67,1.03,2.23.62.56,1.37.84,2.27.84,1.29,0,2.2-.54,2.73-1.62h2.58c-.35,1.06-.98,1.94-1.9,2.62-.92.68-2.05,1.02-3.41,1.02-1.11,0-2.1-.25-2.97-.75s-1.56-1.2-2.06-2.1c-.5-.9-.75-1.95-.75-3.14s.24-2.24.72-3.14c.48-.9,1.16-1.6,2.04-2.09.88-.49,1.88-.73,3.01-.73s2.06.24,2.92.71c.85.48,1.52,1.14,2,2.01.48.86.71,1.85.71,2.97,0,.43-.03.83-.08,1.18ZM60.16,402.22c-.01-.88-.33-1.59-.95-2.12-.62-.53-1.38-.8-2.29-.8-.83,0-1.53.26-2.12.79-.59.52-.94,1.24-1.05,2.13h6.41Z"/>
            <path class="cls-5" d="M68.8,397.78c.58-.33,1.27-.49,2.07-.49v2.48h-.61c-.94,0-1.65.24-2.13.71-.48.48-.72,1.3-.72,2.48v6.09h-2.39v-11.57h2.39v1.68c.35-.59.82-1.05,1.4-1.38Z"/>
            <path class="cls-5" d="M83.59,404.15h-8.84c.07.92.41,1.67,1.03,2.23.62.56,1.37.84,2.27.84,1.29,0,2.2-.54,2.73-1.62h2.58c-.35,1.06-.98,1.94-1.9,2.62-.92.68-2.05,1.02-3.41,1.02-1.11,0-2.1-.25-2.97-.75s-1.56-1.2-2.06-2.1c-.5-.9-.75-1.95-.75-3.14s.24-2.24.72-3.14c.48-.9,1.16-1.6,2.04-2.09.88-.49,1.88-.73,3.01-.73s2.06.24,2.92.71c.85.48,1.52,1.14,2,2.01.48.86.71,1.85.71,2.97,0,.43-.03.83-.08,1.18ZM81.18,402.22c-.01-.88-.33-1.59-.95-2.12-.62-.53-1.38-.8-2.29-.8-.83,0-1.53.26-2.12.79-.59.52-.94,1.24-1.05,2.13h6.41ZM77.99,394.85l-3,1.81v-1.87l3-1.74,3,1.74v1.87l-3-1.81Z"/>
            <path class="cls-5" d="M94.32,397.85c.72.38,1.28.94,1.69,1.68s.61,1.64.61,2.69v6.83h-2.37v-6.47c0-1.04-.26-1.83-.78-2.38-.52-.55-1.23-.83-2.12-.83s-1.61.28-2.13.83c-.52.55-.79,1.35-.79,2.38v6.47h-2.39v-11.57h2.39v1.32c.39-.48.89-.85,1.5-1.11.61-.27,1.26-.4,1.94-.4.91,0,1.72.19,2.45.57Z"/>
            <path class="cls-5" d="M99.59,400.11c.48-.9,1.15-1.6,2-2.09.85-.49,1.83-.73,2.94-.73,1.4,0,2.56.33,3.48,1s1.54,1.61,1.86,2.85h-2.58c-.21-.57-.55-1.02-1.01-1.34s-1.04-.48-1.74-.48c-.98,0-1.76.35-2.34,1.04-.58.69-.87,1.66-.87,2.91s.29,2.22.87,2.92,1.36,1.05,2.34,1.05c1.39,0,2.3-.61,2.75-1.83h2.58c-.34,1.18-.97,2.11-1.89,2.8-.92.69-2.07,1.04-3.44,1.04-1.11,0-2.09-.25-2.94-.75-.85-.5-1.52-1.2-2-2.1-.48-.9-.72-1.95-.72-3.14s.24-2.24.72-3.14Z"/>
            <path class="cls-5" d="M112.39,395.5c-.29-.29-.44-.66-.44-1.09s.15-.8.44-1.09c.29-.29.66-.44,1.09-.44s.78.15,1.07.44c.29.29.44.66.44,1.09s-.15.8-.44,1.09c-.29.29-.65.44-1.07.44s-.8-.15-1.09-.44ZM114.65,397.48v11.57h-2.39v-11.57h2.39Z"/>
            <path class="cls-5" d="M117.73,400.12c.48-.9,1.14-1.59,1.97-2.09s1.75-.75,2.76-.75c.91,0,1.7.18,2.38.54.68.36,1.22.8,1.63,1.33v-1.68h2.42v11.57h-2.42v-1.72c-.41.55-.96,1-1.66,1.36-.7.36-1.5.55-2.39.55-.99,0-1.9-.26-2.73-.77-.83-.51-1.48-1.23-1.96-2.14-.48-.92-.72-1.96-.72-3.12s.24-2.19.72-3.09ZM125.98,401.17c-.33-.59-.76-1.04-1.29-1.34s-1.11-.46-1.72-.46-1.19.15-1.72.45c-.53.3-.96.74-1.29,1.32s-.49,1.27-.49,2.07.16,1.5.49,2.1c.33.6.76,1.06,1.3,1.38.54.31,1.11.47,1.71.47s1.19-.15,1.72-.46c.53-.31.96-.76,1.29-1.35.33-.6.49-1.29.49-2.09s-.16-1.49-.49-2.08Z"/>
            <path class="cls-5" d="M133.79,408.74c-.72-.33-1.29-.78-1.71-1.34-.42-.57-.64-1.2-.67-1.9h2.48c.04.49.28.9.7,1.23s.96.49,1.61.49,1.19-.13,1.56-.39c.37-.26.56-.59.56-1,0-.43-.21-.76-.62-.97s-1.07-.44-1.96-.69c-.87-.24-1.58-.47-2.12-.69-.55-.22-1.02-.57-1.42-1.03-.4-.46-.6-1.07-.6-1.83,0-.62.18-1.18.55-1.69s.89-.91,1.56-1.21,1.46-.44,2.34-.44c1.32,0,2.38.33,3.18,1,.8.67,1.24,1.57,1.29,2.72h-2.39c-.04-.52-.25-.93-.63-1.24-.38-.31-.89-.46-1.53-.46s-1.11.12-1.45.36-.5.55-.5.94c0,.31.11.57.34.78s.5.38.82.49c.32.12.8.27,1.43.45.84.22,1.53.45,2.07.68.54.23,1,.57,1.4,1.02s.59,1.04.61,1.78c0,.66-.18,1.25-.55,1.76-.36.52-.88.92-1.54,1.22s-1.45.44-2.34.44-1.73-.17-2.45-.49Z"/>
          </g>
          <rect class="cls-7" x="149.85" y="395.41" width="202.05" height="13.83"/>
        </g>
        <g>
          <rect class="cls-7" x="138.04" y="331.62" width="213.85" height="13.83"/>
          <g>
            <path class="cls-5" d="M19.91,334.09c.67-1.13,1.57-2.02,2.71-2.66,1.14-.64,2.39-.96,3.75-.96,1.55,0,2.94.38,4.15,1.14,1.21.76,2.09,1.84,2.64,3.25h-2.88c-.38-.77-.9-1.34-1.58-1.72s-1.45-.57-2.33-.57c-.97,0-1.83.22-2.58.65-.76.43-1.35,1.06-1.77,1.87-.43.81-.64,1.76-.64,2.83s.21,2.02.64,2.83c.43.81,1.02,1.44,1.77,1.88.76.44,1.62.66,2.58.66.88,0,1.66-.19,2.33-.57.67-.38,1.2-.95,1.58-1.72h2.88c-.55,1.4-1.42,2.48-2.64,3.23s-2.59,1.13-4.15,1.13c-1.37,0-2.62-.32-3.76-.96-1.13-.64-2.03-1.52-2.7-2.66-.67-1.13-1-2.42-1-3.84s.33-2.71,1-3.84Z"/>
            <path class="cls-5" d="M38,344.71c-.88-.5-1.57-1.2-2.08-2.1-.5-.9-.76-1.95-.76-3.14s.26-2.22.78-3.13,1.22-1.61,2.12-2.1c.9-.49,1.9-.73,3-.73s2.11.25,3,.73c.9.49,1.6,1.19,2.12,2.1.52.91.78,1.95.78,3.13s-.27,2.22-.8,3.13c-.53.91-1.26,1.61-2.17,2.11s-1.93.75-3.03.75-2.08-.25-2.96-.75ZM42.7,342.93c.54-.29.98-.74,1.31-1.32s.5-1.3.5-2.14-.16-1.55-.48-2.13c-.32-.58-.75-1.02-1.28-1.31s-1.11-.44-1.72-.44-1.19.15-1.71.44c-.52.29-.94.73-1.25,1.31-.31.58-.46,1.29-.46,2.13,0,1.25.32,2.21.96,2.89s1.44,1.02,2.41,1.02c.62,0,1.19-.15,1.73-.44Z"/>
            <path class="cls-5" d="M57.63,334.07c.72.38,1.28.94,1.69,1.68s.61,1.64.61,2.69v6.83h-2.37v-6.47c0-1.04-.26-1.83-.78-2.38-.52-.55-1.22-.83-2.12-.83s-1.61.28-2.13.83c-.53.55-.79,1.35-.79,2.38v6.47h-2.39v-11.57h2.39v1.32c.39-.48.89-.85,1.5-1.11.61-.27,1.26-.4,1.94-.4.91,0,1.73.19,2.45.57Z"/>
            <path class="cls-5" d="M62.9,336.33c.48-.9,1.15-1.6,2-2.09.85-.49,1.83-.73,2.94-.73,1.4,0,2.56.33,3.48,1s1.54,1.61,1.86,2.85h-2.58c-.21-.57-.55-1.02-1.01-1.34s-1.04-.48-1.74-.48c-.98,0-1.76.35-2.34,1.04-.58.69-.87,1.66-.87,2.91s.29,2.22.87,2.92,1.36,1.05,2.34,1.05c1.39,0,2.3-.61,2.75-1.83h2.58c-.34,1.18-.97,2.11-1.89,2.8-.92.69-2.07,1.04-3.44,1.04-1.11,0-2.09-.25-2.94-.75-.85-.5-1.52-1.2-2-2.1-.48-.9-.72-1.95-.72-3.14s.24-2.24.72-3.14Z"/>
            <path class="cls-5" d="M77.97,329.72v15.54h-2.39v-15.54h2.39Z"/>
            <path class="cls-5" d="M91.6,333.69v11.57h-2.39v-1.37c-.38.48-.87.85-1.48,1.12-.61.27-1.26.41-1.94.41-.91,0-1.73-.19-2.45-.57-.72-.38-1.29-.94-1.7-1.68s-.62-1.64-.62-2.69v-6.8h2.37v6.45c0,1.04.26,1.83.78,2.38s1.22.83,2.12.83,1.61-.28,2.13-.83c.52-.55.79-1.35.79-2.38v-6.45h2.39Z"/>
            <path class="cls-5" d="M96.5,344.96c-.72-.33-1.29-.78-1.71-1.34s-.64-1.2-.67-1.9h2.48c.04.49.28.9.7,1.23.43.33.96.49,1.61.49s1.19-.13,1.56-.39c.37-.26.56-.59.56-1,0-.43-.21-.76-.62-.97s-1.07-.44-1.96-.69c-.87-.24-1.58-.47-2.12-.69-.55-.22-1.02-.57-1.42-1.03-.4-.46-.6-1.07-.6-1.83,0-.62.18-1.18.55-1.69.36-.51.88-.91,1.56-1.21.68-.29,1.46-.44,2.34-.44,1.32,0,2.38.33,3.18,1s1.24,1.57,1.29,2.72h-2.39c-.04-.52-.25-.93-.63-1.24-.38-.31-.89-.46-1.53-.46s-1.11.12-1.45.36c-.34.24-.5.55-.5.94,0,.31.11.57.34.78.22.21.5.38.82.49.32.12.8.27,1.43.45.84.22,1.53.45,2.07.68.54.23,1,.57,1.4,1.02.39.45.59,1.04.61,1.78,0,.66-.18,1.25-.55,1.76s-.88.92-1.54,1.22c-.67.29-1.45.44-2.34.44s-1.73-.17-2.45-.49Z"/>
            <path class="cls-5" d="M105.89,336.34c.48-.9,1.14-1.59,1.97-2.09s1.75-.75,2.76-.75c.91,0,1.7.18,2.38.54.68.36,1.22.8,1.63,1.33v-1.68h2.42v11.57h-2.42v-1.72c-.41.55-.96,1-1.66,1.36-.7.36-1.5.55-2.39.55-.99,0-1.9-.26-2.73-.77-.83-.51-1.48-1.23-1.96-2.14-.48-.92-.72-1.96-.72-3.12s.24-2.19.72-3.09ZM114.14,337.39c-.33-.59-.76-1.04-1.29-1.34s-1.11-.46-1.72-.46-1.19.15-1.72.45c-.53.3-.96.74-1.29,1.32s-.49,1.27-.49,2.07.16,1.5.49,2.1c.33.6.76,1.06,1.3,1.38.54.31,1.11.47,1.71.47s1.19-.15,1.72-.46c.53-.31.96-.76,1.29-1.35.33-.6.49-1.29.49-2.09s-.16-1.49-.49-2.08ZM108.88,330.66c.42-.41.95-.62,1.58-.62.27,0,.5.04.69.13.2.08.43.21.71.38.21.14.39.25.54.31.15.07.31.11.49.11.24,0,.44-.07.6-.22s.26-.37.3-.66h1.34c-.11.81-.38,1.42-.8,1.84-.42.41-.95.62-1.58.62-.27,0-.5-.05-.71-.14s-.44-.22-.69-.39c-.25-.15-.45-.26-.58-.33-.13-.06-.28-.09-.45-.09-.24,0-.44.08-.6.23-.16.15-.26.38-.3.67h-1.34c.11-.81.38-1.42.8-1.84Z"/>
            <path class="cls-5" d="M122.26,344.71c-.88-.5-1.58-1.2-2.08-2.1-.5-.9-.76-1.95-.76-3.14s.26-2.22.78-3.13c.52-.91,1.22-1.61,2.12-2.1.9-.49,1.9-.73,3-.73s2.11.25,3,.73c.9.49,1.6,1.19,2.12,2.1.52.91.78,1.95.78,3.13s-.27,2.22-.8,3.13-1.26,1.61-2.17,2.11-1.93.75-3.03.75-2.08-.25-2.96-.75ZM126.95,342.93c.54-.29.98-.74,1.31-1.32s.5-1.3.5-2.14-.16-1.55-.48-2.13c-.32-.58-.75-1.02-1.28-1.31s-1.11-.44-1.72-.44-1.19.15-1.71.44-.94.73-1.25,1.31c-.31.58-.46,1.29-.46,2.13,0,1.25.32,2.21.96,2.89.64.68,1.44,1.02,2.4,1.02.62,0,1.19-.15,1.73-.44Z"/>
          </g>
        </g>
      </g>
      <g>
        <rect class="cls-3" x="235.02" y="106.29" width="265.34" height="68.21"/>
        <text class="cls-6" transform="translate(253.27 134.96)"><tspan x="0" y="0">Faa o seu artigo o </tspan><tspan x="0" y="25.2">mais conciso possvel</tspan></text>
      </g>
    </g>
  </g>
</svg>